<svg xmlns="http://www.w3.org/2000/svg" viewBox="0 0 21.86 15.76"><defs><style>.cls-1{fill:#9a4479;stroke:#9a4479;stroke-miterlimit:10;stroke-width:0.75px;}</style></defs><title>MAIL</title><g id="Capa_2" data-name="Capa 2"><g id="Capa_2-2" data-name="Capa 2"><path class="cls-1" d="M17.47,12a.34.34,0,0,1-.23-.09L13.32,8.2a.34.34,0,1,1,.47-.5l3.92,3.68a.34.34,0,0,1-.23.59Z"/><path class="cls-1" d="M4.39,12a.34.34,0,0,1-.23-.59L8.08,7.71a.34.34,0,1,1,.47.5L4.63,11.88A.34.34,0,0,1,4.39,12Z"/><path class="cls-1" d="M19.79,15.39H2.08a1.7,1.7,0,0,1-1.7-1.7V2.08A1.7,1.7,0,0,1,2.08.38H19.79a1.7,1.7,0,0,1,1.7,1.7V13.68A1.7,1.7,0,0,1,19.79,15.39ZM2.08,1.06a1,1,0,0,0-1,1V13.68a1,1,0,0,0,1,1H19.79a1,1,0,0,0,1-1V2.08a1,1,0,0,0-1-1Z"/><path class="cls-1" d="M10.93,9.59a1.9,1.9,0,0,1-1.25-.45L.94,1.51A.34.34,0,1,1,1.39,1l8.74,7.63a1.27,1.27,0,0,0,1.6,0L20.47,1a.34.34,0,1,1,.45.51L12.18,9.14A1.9,1.9,0,0,1,10.93,9.59Z"/></g></g></svg>