<svg id="Capa_1" data-name="Capa 1" xmlns="http://www.w3.org/2000/svg" viewBox="0 0 64 64"><defs><style>.cls-1{fill:#ccc869;}</style></defs><title>iconos sone</title><path class="cls-1" d="M57.92,56.43l-8.29-20a1,1,0,1,0-1.85.76l7.49,18.09-6.84-2a1,1,0,0,0-1.15.48L43.86,60l-8-19.41a20.15,20.15,0,1,0-20-7.76L6.08,56.43a1,1,0,0,0,1.2,1.34l8.06-2.34,4,7.35a1,1,0,0,0,.88.52h.06a1,1,0,0,0,.87-.62L28.94,44a1,1,0,0,0-1.85-.76L20.14,60l-3.43-6.23a1,1,0,0,0-1.15-.48l-6.84,2L17.3,34.56A20.08,20.08,0,0,0,32,41c.6,0,1.19,0,1.78-.08l9,21.81a1,1,0,0,0,.87.62h.06a1,1,0,0,0,.87-.52l4.05-7.35,8.06,2.34a1,1,0,0,0,1.2-1.34ZM13.87,20.83A18.13,18.13,0,1,1,32,39,18.15,18.15,0,0,1,13.87,20.83Z"/><path class="cls-1" d="M43.54,17.07a1,1,0,0,0-.78-.68L36,15.27l-3.15-6a1,1,0,0,0-1.77,0l-3.15,6L21.24,16.4a1,1,0,0,0-.55,1.69l4.78,4.86-1,6.74a1,1,0,0,0,1.43,1l6.1-3,6.1,3a1,1,0,0,0,1.43-1l-1-6.74,4.78-4.86A1,1,0,0,0,43.54,17.07ZM36.76,21.9a1,1,0,0,0-.28.85l.8,5.34-4.83-2.41a1,1,0,0,0-.89,0l-4.83,2.41.8-5.34a1,1,0,0,0-.28-.85l-3.78-3.85,5.32-.89a1,1,0,0,0,.72-.52L32,11.85l2.49,4.79a1,1,0,0,0,.72.52l5.32.89L36.76,21.9Z"/><path class="cls-1" d="M47.14,21.83a1,1,0,0,0-1.12.86A14.14,14.14,0,1,1,46,19a1,1,0,1,0,2-.26A16.14,16.14,0,1,0,48,23a1,1,0,0,0-.86-1.12Z"/></svg>