<svg id="Capa_1" data-name="Capa 1" xmlns="http://www.w3.org/2000/svg" viewBox="0 0 64 64"><defs><style>.cls-1{fill:#903b69;}.cls-2{fill:#24222f;}</style></defs><title>sone lo</title><rect class="cls-1" x="16.16" y="23.31" width="1.81" height="4.37"/><rect class="cls-1" x="18.89" y="21.13" width="1.81" height="8.74"/><rect class="cls-1" x="23.26" y="17.85" width="1.81" height="15.29"/><rect class="cls-1" x="27.63" y="22.22" width="1.81" height="7.65"/><rect class="cls-1" x="30.91" y="17.85" width="1.81" height="15.29"/><rect class="cls-1" x="35.28" y="22.22" width="1.81" height="6.55"/><rect class="cls-1" x="38.56" y="17.85" width="1.81" height="15.29"/><rect class="cls-1" x="42.93" y="11.29" width="1.81" height="28.4"/><rect class="cls-1" x="47.3" y="17.85" width="1.81" height="14.2"/><rect class="cls-1" x="50.57" y="23.31" width="1.81" height="4.37"/><path class="cls-2" d="M28.9,47.34,14.51,33H6.33V18h8.16L28.9,2.43ZM8.14,31.15h7.12L27.09,43V7.05L15.28,19.85H8.14Z"/><path class="cls-2" d="M14.74,50,13.41,52.7A6.63,6.63,0,0,0,10.79,52c-.89,0-1.26.16-1.26.71s.83.8,1.84,1.12c1.56.48,3.58,1.35,3.58,3.76,0,3.46-3.17,4-5.57,4A7,7,0,0,1,4.83,60l1.65-2.78a5.89,5.89,0,0,0,2.91,1.35c.57,0,1.26-.07,1.26-.85S9.37,56.8,8,56.11,5.65,54.67,5.65,52.9c0-2.41,2-3.79,5.14-3.79A9,9,0,0,1,14.74,50Z"/><path class="cls-2" d="M23.2,49.12c3.9,0,7,2.57,7,6.24s-3,6.22-7,6.22c-4.24,0-7.09-2.59-7.09-6.22S19.23,49.12,23.2,49.12Zm0,9a2.65,2.65,0,0,0,2.73-2.75,2.74,2.74,0,1,0-5.48,0A2.63,2.63,0,0,0,23.18,58.11Z"/><path class="cls-2" d="M32.08,49.46h4.06V50.7h0a4.87,4.87,0,0,1,3.37-1.58c2.16,0,5.16,1.08,5.16,4.36v7.75H40.66V54.58a2.18,2.18,0,0,0-2.11-2.29,2.5,2.5,0,0,0-2.41,2.29v6.65H32.08Z"/><path class="cls-2" d="M50.62,55.91a2.41,2.41,0,0,0,2.55,2.43A3.23,3.23,0,0,0,56,57L59,58.5c-1.33,2.23-3.49,3.07-6.1,3.07a6.23,6.23,0,1,1,0-12.46c3.58,0,6.31,2.11,6.31,6.24a4.23,4.23,0,0,1,0,.55Zm4.59-2.25A2.09,2.09,0,0,0,53,51.76a2,2,0,0,0-2.25,1.9Z"/></svg>