<svg xmlns="http://www.w3.org/2000/svg" viewBox="0 0 16.68 19.66"><defs><style>.cls-1{fill:#9a4479;}.cls-2{fill:none;stroke:#9a4479;stroke-miterlimit:10;stroke-width:0.75px;}</style></defs><title>user2</title><g id="Capa_2" data-name="Capa 2"><g id="Capa_2-2" data-name="Capa 2"><path class="cls-1" d="M8.34,8.85A4.24,4.24,0,1,0,4.1,4.61,4.24,4.24,0,0,0,8.34,8.85Zm0-7.46A3.22,3.22,0,1,1,5.12,4.61,3.22,3.22,0,0,1,8.34,1.39Z"/><path class="cls-2" d="M8.34,8.85A4.24,4.24,0,1,0,4.1,4.61,4.24,4.24,0,0,0,8.34,8.85Zm0-7.46A3.22,3.22,0,1,1,5.12,4.61,3.22,3.22,0,0,1,8.34,1.39Z"/><path class="cls-1" d="M8.34,10.81a8,8,0,0,0-8,8,.51.51,0,0,0,1,0,6.95,6.95,0,0,1,13.89,0,.51.51,0,0,0,1,0A8,8,0,0,0,8.34,10.81Z"/><path class="cls-2" d="M8.34,10.81a8,8,0,0,0-8,8,.51.51,0,0,0,1,0,6.95,6.95,0,0,1,13.89,0,.51.51,0,0,0,1,0A8,8,0,0,0,8.34,10.81Z"/></g></g></svg>