<svg id="Capa_1" data-name="Capa 1" xmlns="http://www.w3.org/2000/svg" viewBox="0 0 1611.839 906.081">
  <defs>
    <style>
      .cls-1 {
        fill: #f7f7f7;
      }

      .cls-2 {
        fill: #ddd;
      }

      .cls-3 {
        fill: #fff;
      }

      .cls-4 {
        fill: #7a7c7c;
      }

      .cls-5 {
        fill: #f2f2f2;
      }

      .cls-6 {
        fill: #b9b9ba;
      }

      .cls-7 {
        fill: #e8e4e3;
      }

      .cls-8 {
        fill: #bfbebe;
      }

      .cls-9 {
        fill: #dbdbdb;
      }

      .cls-10 {
        fill: #fce897;
        opacity: 0.3;
      }

      .cls-11 {
        fill: #7f3d67;
      }

      .cls-12 {
        opacity: 0.53;
      }
    </style>
  </defs>
  <title>error 500 (1)</title>
  <g>
    <path class="cls-1" d="M461.422,1015.679c-21.22-4.612-276.176-46.156-257.409-352.552s42.324-398.54,141.448-432.251,340.075-193.23,529.15-41.553,393.1,287.715,312.139,529.9-94.221,322.97-305.463,310.609S562.324,1037.61,461.422,1015.679Z" transform="translate(-203.026 -124.96)"/>
    <path class="cls-2" d="M523.307,735.96h94.826c32.415,0,51.167-36.747,32.146-62.995l-80.21-110.683a24.98,24.98,0,0,0-20.227-10.322H392.881A24.98,24.98,0,0,0,371,589l46.585,84.518A120.713,120.713,0,0,0,523.307,735.96Z" transform="translate(-203.026 -124.96)"/>
    <g>
      <path class="cls-2" d="M437.395,470.6l-122.5,35.13c-7.937,2.276-16.578-1.853-19.3-9.222l-17.624-47.735c-2.721-7.369,1.508-15.189,9.445-17.465l122.5-35.13c7.937-2.276,16.578,1.852,19.3,9.222l17.624,47.735C449.561,460.5,445.332,468.323,437.395,470.6Z" transform="translate(-203.026 -124.96)"/>
      <path class="cls-2" d="M342.634,615.808l-40.39-110.246-5.653-15.43c-.293-.8-3.157.068-2.9.776l40.39,110.246,5.653,15.43c.293.8,3.157-.068,2.9-.776Z" transform="translate(-203.026 -124.96)"/>
    </g>
    <path class="cls-2" d="M986.124,908.362c30.829.473,76.277-5.394,105.187,6.451,5.7,2.334,10.556,7.74,10.446,13.717q-.009.51-.068,1.026c-.621,5.434-5.28,9.762-10.479,11.707-23.165,8.667-54.515,4.112-78.68,2.924-9.374-.461-18.048-1.659-27.635-1.592-20.314.142-40.108,2.761-58.6-6.911-6.133-3.209-12.328-6.459-17.567-10.982-3.121-2.694-19.078-23.079-5.908-21.382,4.355.561,8.28,3.657,12.549,4.94,5.31,1.595,10.7,3.149,16.278,3.381C949.686,912.388,967.9,908.083,986.124,908.362Z" transform="translate(-203.026 -124.96)"/>
    <path class="cls-2" d="M905.548,900.151c-2.573-2.789-6.539-4.461-10.562-5.717-15.263-4.765-24.1-14-35.77-24.361-9.538-8.471-20,1.18-23.882,10.226-2.459,5.73-4.539,14.372-.324,19.818,5.311,6.86,18.211,4.876,25.895,6.119a117.5,117.5,0,0,1,30.739,9.429,23.792,23.792,0,0,0,7.172,2.529c6.007.683,9.53-4.666,9.631-10.121A10.893,10.893,0,0,0,905.548,900.151Z" transform="translate(-203.026 -124.96)"/>
    <g>
      <g>
        <path class="cls-3" d="M940.968,816.192c7.619-62.164,21.5-219.22,84.749-197.485,58.934,20.253,55.887,132.688,68.088,207.8,0,0-62.624,3.189-83.381,1.624C992.839,826.807,940.968,816.192,940.968,816.192Z" transform="translate(-203.026 -124.96)"/>
        <path class="cls-4" d="M942.417,815.8c3.43-28.065,6.49-56.168,11.369-84.033,5.1-29.135,11.253-59.774,25.245-86.138,5.09-9.591,11.745-19.485,21.407-24.967,10.673-6.055,22.948-3.131,33.078,2.672,27.258,15.616,36.693,51.122,42.448,79.714,8.23,40.886,9.773,82.721,16.392,123.845l2.4-.932c-19.3.98-38.618,1.725-57.936,1.989-10.472.143-21.006.307-31.415-1-12.333-1.555-24.585-3.842-36.8-6.127q-13.238-2.476-26.438-5.157c-.642-.131-3.1.912-2.4,1.055,20.05,4.1,40.2,8.127,60.481,10.918,22.432,3.088,45.63,1.331,68.17.477q12.219-.462,24.433-1.063c.387-.02,2.5-.291,2.4-.932-6.243-38.788-8.008-78.175-15.054-116.851-5.477-30.064-14.117-68.066-41.916-85.662-55.045-34.842-76.942,56.376-84.222,92.128-6.786,33.327-10.42,67.121-14.542,100.846C939.49,816.824,942.318,816.619,942.417,815.8Z" transform="translate(-203.026 -124.96)"/>
      </g>
      <path class="cls-3" d="M1041.788,566.257c-5.584-31.542-24-54.654-41.128-51.621s-26.491,31.061-20.907,62.6l1,5.653c3.1,17.488,6.741,29.411,10.844,37.431,8.434,16.487,30.656,20.057,30.656,20.057s20.17-10.934,22.9-27.49c1.494-9.062.982-22.078-2.364-40.981Z" transform="translate(-203.026 -124.96)"/>
      <path class="cls-4" d="M1003.315,631.416c-14.3-10.56-17.74-30.54-20.767-46.992-3.155-17.153-5.042-35.186,1.464-51.86,2.684-6.878,7.389-14.677,14.927-16.925,6.791-2.025,13.773,1.44,18.881,5.732,13.253,11.135,19.654,29.358,22.624,45.872,3.217,17.883,9.157,41.908-2.118,58.068-.635.911,2.2.553,2.655-.1,10.929-15.664,6.008-38.1,2.928-55.541-3.177-17.994-9.261-38.238-24.262-50.073-9.679-7.636-22.509-7.947-31.236,1.324-12.615,13.4-13.113,36.164-10.667,53.216a215.43,215.43,0,0,0,7.213,33.421c3.083,9.889,7.1,18.594,15.645,24.906.713.526,3.3-.615,2.714-1.049Z" transform="translate(-203.026 -124.96)"/>
      <g>
        <path class="cls-3" d="M1078.458,846.831c1.179-11.853,2.848-24.457,3.474-36.66a164.341,164.341,0,0,0-.059-19.883c-.321-4.595.036-15.416-3.036-19.057-3.917-4.641-20.361-.5-26.021-.134-9.223.595-18.584,1.354-27.831.9-18.1-.884-72.054-11.216-72.056-11.216-1.941.014-7.43,62.874-8.091,68.605-2.146,18.607-5.268,37.052-6.417,55.775-.618,10.059-4.113,31.806,3.292,40.5a5.064,5.064,0,0,0,2.715,2.1c5.59,1.233,10.645-8.988,12.669-12.6,13.035-23.247,17.644-50.129,29.682-73.956,2.7-5.342,5.809-10.728,10.679-14.208,4.718-3.371,12.3-7.036,17.618-3.43,11.47,7.774,17.318,25.463,22.27,37.936a221.436,221.436,0,0,1,10.041,32.286c2.368,10.35,3.694,20.9,8.449,30.544,1.952,3.96,4.3,8.713,9,9.441,5.718.887,8.036-15.012,8.581-18.05,3.683-20.534,2.874-41.624,4.467-62.377Q1078.131,850.09,1078.458,846.831Z" transform="translate(-203.026 -124.96)"/>
        <path class="cls-4" d="M1079.893,846.6c1.738-17.188,4.244-34.412,3.677-51.732-.206-6.292,0-13.122-1.36-19.29-.9-4.091-2.69-6.323-6.879-6.966-5-.766-10.291.172-15.236.905a201.441,201.441,0,0,1-21.511,1.8c-11.35.456-22.316-.736-33.514-2.383-10.8-1.588-21.56-3.423-32.305-5.334-5.9-1.05-12.5-3.252-18.509-3.4-3.762-.091-3.607,3.089-4.1,6.167-1.335,8.365-2.151,16.825-3.029,25.247-1.856,17.8-3.314,35.625-5.664,53.372-2.128,16.068-3.743,32.1-5.138,48.241-.857,9.92-2.813,23.515,3.418,32.17,6.111,8.488,14.158-2.287,17.274-7.743,7.885-13.807,13.055-28.7,18.154-43.693,2.761-8.121,5.558-16.24,8.932-24.13,3.419-8,7.222-17.453,14.478-22.733,5.042-3.668,11.271-5.836,16.705-1.855a33.855,33.855,0,0,1,7.588,8.438c3.922,5.8,6.736,12.293,9.328,18.769,6.13,15.315,11.482,30.728,14.851,46.908,1.737,8.344,3.317,16.776,6.95,24.55,1.924,4.116,4.6,9.9,9.777,10.492,7.505.861,9.339-9.82,10.387-15.119,2.966-14.994,3.556-30.262,4.113-45.495.332-9.08.735-18.146,1.611-27.193.085-.877-2.8-.306-2.871.462-1.559,16.087-1.468,32.254-2.616,48.365-.763,10.7-1.175,24.3-6.026,34.267-4.011,8.242-9.963-3.145-11.857-7.365-3.263-7.27-4.791-15.117-6.392-22.876-3.167-15.346-8.058-29.935-13.742-44.508-4.254-10.907-9.045-23.955-18.9-31.137-8.119-5.919-19.8.532-25.509,7.1-9.617,11.066-14.172,27.394-18.823,41-5.108,14.944-10.031,29.933-17.683,43.815-2.173,3.941-7.976,15.688-12.944,8.679-3.14-4.43-3.76-10.269-3.971-15.549-.517-12.929,1.246-26.53,2.633-39.36,2.22-20.52,5.123-40.926,7.116-61.473.87-8.974,1.763-17.946,2.773-26.905.435-3.86.886-7.719,1.414-11.567.322-2.346,1.212-5.045,1.225-7.4.008-1.462,1.29-1.14-.752-1.08-2.893.085-.306.437.039.563,2.172.794,4.867.913,7.138,1.332q13.416,2.472,26.871,4.728c9.815,1.633,19.657,3.226,29.55,4.319,12.037,1.33,24.3.852,36.338-.31,4.949-.478,9.813-1.6,14.786-1.894,6.732-.395,10.634.725,11.845,7.763,2.495,14.495,1.395,30.292.067,44.819-.753,8.236-1.753,16.447-2.585,24.674C1076.934,847.936,1079.815,847.37,1079.893,846.6Z" transform="translate(-203.026 -124.96)"/>
      </g>
      <path class="cls-5" d="M1081.937,771.789c-21.859.748-44.021,2.019-65.875.5-13.271-.92-26.388-3.476-39.4-6.317-6.38-1.392-12.732-2.972-19.129-4.266-1.7-.343-7.763-1.743-6.242,2.329,1.068,2.858,7.639,4.685,10.082,5.535,5.094,1.77,10.724,2.5,16.027,3.58a245.2,245.2,0,0,0,32.057,4.724c22.637,1.568,45.582.308,68.224-.467,2-.068,6.022-.982,7.037-3.1C1085.767,772.112,1083.7,771.729,1081.937,771.789Z" transform="translate(-203.026 -124.96)"/>
      <path class="cls-5" d="M976.918,784.914a22.839,22.839,0,0,1-10.082,13.8c-1.537.97-2.183,2.981-.557,4.158,1.762,1.275,4.586.412,6.21-.613a30.14,30.14,0,0,0,13.2-18.137c1-3.873-7.857-2.761-8.772.793Z" transform="translate(-203.026 -124.96)"/>
      <path class="cls-4" d="M977.033,783.435a25.545,25.545,0,0,1-11.072,15.43c-1.641,1.035.925,1.163,1.741.648a27.428,27.428,0,0,0,12.211-16.506c.223-.866-2.656-.44-2.88.429Z" transform="translate(-203.026 -124.96)"/>
      <g>
        <path class="cls-6" d="M1045.247,630.548c38.874,36.243,37.9,130.34,48.558,195.959-.033-.2-12.154.565-12.86.6-6.209.268-13.06,1.952-18.164-2.382-6.069-5.152-10.3-15.224-13.626-22.273-8.062-17.083-12.547-35.721-14.569-54.45-2.122-19.652-1.641-39.469-.391-59.162.544-8.569,2.906-18.692,1.3-27.046-1.341-7-7.173-14.449-1.945-21.307,1.023-1.342,2.526-1.848,3.918-2.736C1038.249,637.253,1045.844,631.1,1045.247,630.548Z" transform="translate(-203.026 -124.96)"/>
        <path class="cls-4" d="M1043.918,631.176c17.451,16.55,25.145,41.066,30.335,63.884,6.392,28.109,9.127,56.933,12.235,85.543,1.68,15.463,3.4,30.932,5.868,46.293l2.293-1.337c-3.237-.757-7.358.159-10.643.351-6.566.383-14.548,2.38-20.1-2-6.2-4.895-9.52-13.736-12.737-20.643a163.054,163.054,0,0,1-9.64-26.044c-5.308-19.494-7.011-39.744-6.933-59.892.039-10.065.336-20.2,1.187-30.233.676-7.977,2.518-16.079,1.422-24.1-.588-4.3-2.589-8.132-3.68-12.293-.694-2.644-1.18-6.263.509-8.687,1.164-1.672,3.079-2.6,4.635-3.8,1.9-1.464,8.252-5.272,8.031-8.045-.1-1.262-3.006-.58-2.9.776.068.849-4.681,4.17-5.487,4.8-1.623,1.261-3.6,2.119-5.115,3.484-5.7,5.117-2.394,12.769-.366,18.719,3.1,9.111,1.1,18.437.177,27.744-1.048,10.556-1.3,21.286-1.343,31.889-.076,19.713,1.508,39.538,6.495,58.662a160.021,160.021,0,0,0,9.829,27.209c3.124,6.709,6.1,13.882,11.044,19.492,5.443,6.179,11.966,5.894,19.6,5.336,2.3-.168,4.6-.285,6.9-.415,2.13-.121,5.346-.88,7.424-.394.837.2,2.479-.181,2.293-1.337-4.54-28.229-6.687-56.778-10.277-85.131-3.423-27.033-7.522-54.889-18.172-80.169-4.814-11.427-11.174-22.312-20.229-30.9C1045.662,629.053,1042.922,630.232,1043.918,631.176Z" transform="translate(-203.026 -124.96)"/>
      </g>
      <g>
        <path class="cls-6" d="M991.517,626.618c3.654,7.923,15.984,9.273,12.211,18.761-7.029,17.676-17.656,32.884-22.58,51.746-7.371,28.235-14.312,57.268-21.567,85.322-3.037,11.743-4.794,30.06-18.612,33.745C946.959,767.314,956.829,659.786,991.517,626.618Z" transform="translate(-203.026 -124.96)"/>
        <path class="cls-4" d="M990.068,627.006c2.08,3.982,5.651,6.137,8.986,8.945,5,4.207,3.974,8.075,1.575,13.613-5.764,13.3-13.41,25.75-18.324,39.427-5.474,15.235-8.56,31.566-12.475,47.26-3.946,15.817-8.054,31.6-11.948,47.428-2.706,11-4.236,27.988-17.08,31.893l1.608.412c3.086-25.257,5.849-50.546,9.957-75.666,4.532-27.719,10.065-55.936,20.816-82.006,4.739-11.491,10.668-22.959,19.669-31.715.765-.744-2.07-.541-2.67.043-17.07,16.607-24.649,42.3-30.51,64.659-7.307,27.87-11.653,56.473-15.311,85.02-1.711,13.349-3.2,26.724-4.833,40.083-.089.732,1.244.523,1.608.412,9.845-2.994,14.128-11.677,16.677-21.034,3.858-14.163,7.065-28.563,10.625-42.808,4.437-17.752,8.818-35.519,13.416-53.231,4.105-15.813,11.832-29.726,18.813-44.369,2.241-4.7,7.262-11.847,4.22-17.124-2.879-4.995-9.164-6.741-11.921-12.019C992.5,625.346,989.709,626.319,990.068,627.006Z" transform="translate(-203.026 -124.96)"/>
      </g>
      <g>
        <path class="cls-3" d="M1087.522,723.782a12.782,12.782,0,0,0-6.472,21.512l-15.117,38.64a11.451,11.451,0,1,0,9.273,3.628l15.058-38.487a12.781,12.781,0,0,0,10.657-19.621l-1.11,2.836-3.06,7.821-8.3,1.26-5.243-6.561,3.06-7.821h0Zm-18.345,65.523,4.054,5.073-2.366,6.048-6.42.975-4.054-5.073,2.366-6.048Z" transform="translate(-203.026 -124.96)"/>
        <g>
          <path class="cls-4" d="M1087.325,723.047c-8.305,2.211-14.1,10.6-10.215,19.068.449.978,2.363,2.823,2.418,3.542.033.433-.483,1.109-.6,1.526a69.621,69.621,0,0,1-2.626,6.713l-11.822,30.216,1.645-.991c-5.436.762-10.391,3.91-11.845,9.51a12.053,12.053,0,0,0,7.2,14.091c10.12,4.058,23.011-6.781,16.759-17.359-1.113-1.883-1.326-1.379-1.195-2.993.1-1.234,1.112-2.841,1.561-3.989l5.208-13.312,7.893-20.174-1.645.991c10.545-.687,17.745-11.013,12.3-20.821-.54-.972-2.56-.3-2.9.567L1095.3,740.29l1.645-.991c-2.138.325-4.307.561-6.429.976a6.412,6.412,0,0,1-1.54.234c-.466-.084,1.147.708.481-.125q-1.144-1.431-2.287-2.862c-1.624-2.031-2.435-2.28-1.965-4.3a49.571,49.571,0,0,1,2.508-6.41l-1.645.991h0a1.992,1.992,0,0,0,1.645-.991l1.255-3.207c.37-.947-2.52-.612-2.9.358l-1.255,3.207,1.645-.991h0a1.991,1.991,0,0,0-1.645.991c-.8,2.039-2.817,5.161-2.865,7.323-.041,1.841,1.924,3.41,3.128,4.916,1.3,1.622,1.583,2.531,3.509,2.725,2.443.246,5.525-.839,7.969-1.21a1.992,1.992,0,0,0,1.645-.991l4.169-10.657-2.9.567c4.27,7.692.658,17.79-9.013,18.421a1.947,1.947,0,0,0-1.645.991l-15.058,38.487a.408.408,0,0,0,.1.391c6.5,7.942-.388,22.448-11.286,16.621-8.6-4.6-7.24-18.548,3.162-20.007a1.985,1.985,0,0,0,1.645-.991l15.117-38.64a.408.408,0,0,0-.1-.391c-5.959-6.75-4.081-17.7,5.324-20.207C1089.456,724.055,1089.076,722.581,1087.325,723.047Z" transform="translate(-203.026 -124.96)"/>
          <path class="cls-4" d="M1067.832,789.875l1.867,2.336c.464.581,2.081,2.361,2.109,2.545.007.047-1,2.291-1.21,2.824l-1.183,3.024,1.645-.991-6.42.975,1.149.242-1.867-2.336c-.464-.581-2.081-2.36-2.109-2.545-.007-.047,1-2.291,1.21-2.825l1.183-3.024-1.645.991,6.42-.975c1.394-.212,2.394-1.928.391-1.624l-3.964.6c-.986.15-2.7.118-3.553.746s-1.091,2-1.453,2.931c-.37.944-1.524,2.713-1.461,3.734.057.916,1.424,2.042,1.972,2.727.6.756,1.469,2.451,2.38,2.873.852.395,2.318-.1,3.171-.231l4.206-.639a1.992,1.992,0,0,0,1.645-.991l2.366-6.048a.408.408,0,0,0-.1-.391l-4.054-5.073C1069.9,787.953,1067.107,788.968,1067.832,789.875Z" transform="translate(-203.026 -124.96)"/>
        </g>
      </g>
      <path class="cls-6" d="M1052.434,774.277c11.139,3.6,22.133,3.215,33.491,1.026-3.348,4.106-3.8,10.584-4.7,15.605a115.255,115.255,0,0,0-1.817,20.2c-4.472,1.37-9.047,2.747-13.562,1.765s-9.037-4.788-10.884-11.19c-.9-3.109-1.106-6.572-1.74-9.831C1052.54,788.374,1040.025,770.267,1052.434,774.277Z" transform="translate(-203.026 -124.96)"/>
      <path class="cls-4" d="M1083.421,776.619a116.115,116.115,0,0,0-5.475,34.641l1.229-1c-5.008,1.518-10.612,3.245-15.544.59a15.727,15.727,0,0,1-7.225-9.55c-1.793-5.907-.606-13.768-6.013-17.931-.87-.67-3.493.591-2.272,1.531,4.432,3.412,3.844,10.667,4.991,15.594a18.459,18.459,0,0,0,5.939,10.3c6.057,5,13.709,3.251,20.58,1.168.389-.118,1.224-.468,1.229-1a116.118,116.118,0,0,1,5.475-34.642c.376-1.164-2.56-.806-2.916.3Z" transform="translate(-203.026 -124.96)"/>
      <path class="cls-4" d="M1084.617,774.412a62.016,62.016,0,0,1-31.974-1.589c-1.747-.559-5.541,2.11-2.746,3a66.893,66.893,0,0,0,34.3,1.61c2.411-.509,3.7-3.719.421-3.026Z" transform="translate(-203.026 -124.96)"/>
      <g>
        <path class="cls-5" d="M1039.151,554.824c-5.886,3.911-14.312,6.031-21.054,7.887a90.773,90.773,0,0,1-12.553,2.323,137.692,137.692,0,0,1-14.489,1.163c-2.539.057-7.288.66-9.39-1.192-1.867-1.645-9.779,1.651-8.16,3.078,2.691,2.371,7.9,2,11.189,2.019a146.272,146.272,0,0,0,19.347-1.432,110.053,110.053,0,0,0,17.408-3.556c8.13-2.422,17.327-5,24.441-9.725,1.592-1.058.837-1.843-.593-2.212-1.822-.47-4.651.653-6.147,1.647Z" transform="translate(-203.026 -124.96)"/>
        <g>
          <path class="cls-7" d="M973.184,561.481a5.763,5.763,0,0,1-.731-1.809c-1.5-7.01-.09-15.557,2.1-22.268,4.063-12.451,13.759-23.488,27.191-25.555,13.706-2.11,26.464,5.841,34.051,16.81a59.113,59.113,0,0,1,6.321,11.452c1.637,4.066,3.945,9.754-.2,13.09-1.732,1.393-3.957,2.021-5.962,2.89-2.108.914-4.274,1.719-6.429,2.514-4.365,1.609-8.8,3.039-13.3,4.219a93.388,93.388,0,0,1-27.447,3.334q-1.649-.068-3.293-.212-1.137-.1-2.27-.238a41.736,41.736,0,0,1-6.236-1.069A7.316,7.316,0,0,1,973.184,561.481Z" transform="translate(-203.026 -124.96)"/>
          <path class="cls-4" d="M974.633,561.092c-3.257-6.426-1.053-15.925.9-22.459a41.986,41.986,0,0,1,10.426-17.972c13.013-12.86,31.784-9.518,43.758,2.773a53.537,53.537,0,0,1,11.64,18.817c1.033,2.835,2.233,6.236.79,9.158-1.88,3.808-10.794,5.972-14.781,7.393a110.721,110.721,0,0,1-28.732,6.538c-6.606.494-19.679,1.693-24.087-4.37-.438-.6-3.225.331-2.72,1.026,3.731,5.132,12.127,4.75,17.879,4.861a95.936,95.936,0,0,0,23.971-2.84,159.871,159.871,0,0,0,23.565-7.835c5.557-2.276,9.6-4.909,8.035-11.569-3.087-13.152-13.784-26.391-26.356-31.405a33.054,33.054,0,0,0-33.459,5.639,41.406,41.406,0,0,0-12.113,18.132c-2.383,6.9-5.134,17.943-1.612,24.893C972.132,562.653,974.919,561.657,974.633,561.092Z" transform="translate(-203.026 -124.96)"/>
        </g>
        <path class="cls-4" d="M1037.55,544.857a109,109,0,0,1-60.615,12.526c-.683-.057-3.328,1.141-1.857,1.265a115.789,115.789,0,0,0,64.169-13.309c1.695-.9-.956-.877-1.7-.482Z" transform="translate(-203.026 -124.96)"/>
        <path class="cls-4" d="M1006.206,516.832a75.343,75.343,0,0,0,1.443,32.849c.3,1.136,3.2.366,2.9-.776a74.3,74.3,0,0,1-1.429-32.381c.22-1.249-2.717-.8-2.912.308Z" transform="translate(-203.026 -124.96)"/>
        <path class="cls-4" d="M997.369,516.672a48.777,48.777,0,0,0,.134,32.806c.387,1.086,3.267.259,2.9-.776a48.057,48.057,0,0,1-.125-32.357c.369-1.061-2.547-.705-2.907.328Z" transform="translate(-203.026 -124.96)"/>
      </g>
      <path class="cls-4" d="M1047.946,638.842c-9.748,11.283-5.889,27.874-5.276,41.393.352,7.747,1.33,17.079-3.314,23.781-3.118,4.5-6.151,7.518-7.662,13.011-.219.8,2.645.39,2.875-.447,1.567-5.7,5.117-8.891,8.12-13.663,3.275-5.206,3.094-11.946,3.044-17.882-.124-14.648-5.737-34.012,4.87-46.29.69-.8-2.133-.507-2.655.1Z" transform="translate(-203.026 -124.96)"/>
      <path class="cls-4" d="M988.593,636.766c9.435,8.939-.325,20.72-4.536,29.483-4.2,8.735-2.98,18.474-3.489,27.849-.079,1.446,2.861,1,2.928-.248.3-5.5-.025-11.045.488-16.533.6-6.366,3.128-11.412,6.278-16.869,4.343-7.523,8.449-17.865.99-24.931-.905-.858-3.646.316-2.66,1.25Z" transform="translate(-203.026 -124.96)"/>
      <path class="cls-4" d="M999.493,607.946a13.044,13.044,0,0,1,5.614-1.77,10.425,10.425,0,0,1,3.488.132,4.4,4.4,0,0,1,3.439,3.118,5,5,0,0,1-1.39,4.161C1005.8,619.272,992.9,612.2,999.493,607.946Z" transform="translate(-203.026 -124.96)"/>
    </g>
    <g>
      <g>
        <g id="_Group_" data-name="&lt;Group&gt;">
          <path class="cls-3" d="M462.985,464.575l.007,240.586a10.621,10.621,0,0,0,10.638,10.6l216.766-.006a10.621,10.621,0,0,0,10.637-10.6v-37.5l-.179-20.665-.007-228.472a10.621,10.621,0,0,0-10.638-10.6l-170.574,0-56.648,56.6Z" transform="translate(-203.026 -124.96)"/>
          <path class="cls-4" d="M461.53,464.735l0,92.527,0,132.223c0,9.965-2.844,26.415,11.573,27.172,10.36.544,20.9,0,31.265,0l140.155,0H687.5c6.319,0,12.922-2.072,14.659-9.046.828-3.322.325-7.252.325-10.627q0-8.981,0-17.961c0-26.373-.18-52.746-.181-79.12q0-71.106,0-142.213c0-12.708.138-25.424,0-38.132-.16-14.6-14.771-12.528-24.932-12.527l-133.472,0H523.742c-2.892,0-4.472-.192-6.6,1.915-14.889,14.713-29.617,29.593-44.424,44.389l-8.195,8.188c-.578.578-2.967,2.247-2.988,3.213-.028,1.3,2.886.742,2.909-.32-.012.559-.029.17.617-.488.944-.96,1.905-1.9,2.858-2.856l8.9-8.892,25-24.976c5.8-5.8,12.881-11.394,17.9-17.89.139-.18,1.091-.844,1.085-1.084.053,2.126-2.774.075-.95.585,1.393.39,3.482,0,4.915,0l125.337,0c13.039,0,26.258-.638,39.285,0,13.351.653,10.005,19.358,10.005,28.4l0,131.627c0,28.722-.179,57.451.07,86.172.145,16.669,1.1,33.648.112,50.273-.521,8.81-7.2,9.587-13.807,9.587H667.236l-134.783,0H481.918c-2.565,0-5.18.146-7.743,0-8.649-.493-9.728-7.656-9.728-14.28l0-112.387q0-58.545,0-117.091,0-3.35,0-6.7C464.44,463.113,461.53,463.68,461.53,464.735Z" transform="translate(-203.026 -124.96)"/>
        </g>
        <g id="_Group_2" data-name="&lt;Group&gt;">
          <path class="cls-4" d="M518.3,408.1v41.648a32.858,32.858,0,0,1-.185,5.883c-1.035,5.6-5.609,8.19-10.883,8.225-7.787.051-15.576,0-23.363,0H463.546l.6,1.08,56.766-56.769c1.2-1.2-1.636-1.187-2.329-.495l-56.766,56.769c-.584.584-.119,1.08.6,1.08,14.76,0,29.528.157,44.287,0,7.6-.082,14.134-4.252,14.49-12.43.318-7.321,0-14.726,0-22.053q0-11.648,0-23.3C521.2,406.528,518.3,407.133,518.3,408.1Z" transform="translate(-203.026 -124.96)"/>
        </g>
        <g>
          <path class="cls-4" d="M529.147,577.512h99.892c1.187,0,3.04-1.793,1.087-1.793H530.234c-1.187,0-3.04,1.793-1.087,1.793Z" transform="translate(-203.026 -124.96)"/>
          <path class="cls-4" d="M485.056,643.577H673.074c1.05,0,3.09-1.582,1.144-1.582H486.2c-1.05,0-3.09,1.582-1.144,1.582Z" transform="translate(-203.026 -124.96)"/>
          <path class="cls-4" d="M484.687,616.906H672.705c.614,0,3.276-1.175,1.881-1.175H486.569c-.614,0-3.276,1.175-1.881,1.175Z" transform="translate(-203.026 -124.96)"/>
          <path class="cls-4" d="M485.084,670.15H579.8c1.185,0,3.04-1.79,1.088-1.79H486.172c-1.185,0-3.04,1.79-1.088,1.79Z" transform="translate(-203.026 -124.96)"/>
        </g>
        <path class="cls-4" d="M546.133,522.459c17.875-17.853,53.158-18.095,71.613-.972.913.847,3.651-.33,2.66-1.249-19.912-18.474-57.478-17.739-76.679,1.439-1.266,1.265,1.535,1.652,2.406.783Z" transform="translate(-203.026 -124.96)"/>
        <circle class="cls-4" cx="330.673" cy="366.467" r="5.446"/>
        <circle class="cls-4" cx="425.809" cy="366.467" r="5.446"/>
      </g>
      <g>
        <rect class="cls-8" x="391.539" y="282.394" width="181.517" height="96.204" rx="17.249" ry="17.249" transform="translate(-238.804 -65.456) rotate(-6.808)"/>
        <rect class="cls-9" x="401.637" y="293.5" width="172.079" height="84.497" rx="17.249" ry="17.249" transform="translate(-239.388 -64.781) rotate(-6.808)"/>
        <path class="cls-4" d="M561.078,368.467l-96.4,11.508-46.374,5.536c-8.864,1.058-17.87-1.767-20.552-11.437-1.669-6.017-1.733-12.788-2.469-18.952L391.51,323.5c-.856-7.168-3.289-16.11.2-22.847,3.625-7.008,10.261-8.055,17.093-8.871l20.274-2.42,113.888-13.6c5.759-.687,11.239-1.761,16.614,1.507,7.8,4.743,7.852,13.582,8.8,21.558,2.055,17.216,4.707,34.47,6.178,51.746.739,8.676-4.653,16.493-13.48,17.893-1.557.247-2.244,2.365-.276,2.053,11.121-1.764,17.733-10.794,16.516-21.869-.986-8.97-2.14-17.925-3.21-26.885l-3.563-29.846c-1.187-9.945-6.806-18.609-17.827-19.087-3.9-.169-7.989.7-11.838,1.159l-24.588,2.935-68.6,8.19c-14.426,1.722-28.887,3.265-43.29,5.168-9.859,1.3-17.942,8.894-17.484,19.327.3,6.943,1.614,13.954,2.436,20.847l3.952,33.1c.988,8.28,1.409,16.729,9.372,21.693,5.4,3.368,11.033,2.825,16.936,2.12l21.647-2.584,116.8-13.944,2.747-.328C562.383,370.331,563.056,368.231,561.078,368.467Z" transform="translate(-203.026 -124.96)"/>
      </g>
      <path class="cls-4" d="M699.468,526.69c.158,6.436,4.35,13.465,8.143,18.361,9.013,11.633,22.965,17.182,37.226,18.937.854.105,3.387-1.3,1.8-1.494-14.275-1.757-28.044-7.409-36.836-19.223-3.457-4.645-7.283-11.321-7.431-17.358-.02-.824-2.924-.285-2.9.776Z" transform="translate(-203.026 -124.96)"/>
      <path class="cls-4" d="M463.918,527.04c-6.571-.368-13.618-3.751-19.307-6.72-13.235-6.906-24.22-17.236-32.855-29.341-.521-.73-3.156.415-2.9.776,8.9,12.479,20.244,23.117,33.99,30.063,5.753,2.907,12.642,6.082,19.2,6.45.656.037,3.311-1.148,1.867-1.229Z" transform="translate(-203.026 -124.96)"/>
      <path class="cls-4" d="M415.135,525.364l-16.5-141.045-2.362-20.2c-.116-.991-3.029-.343-2.9.776l16.5,141.045,2.362,20.2c.116.991,3.029.343,2.9-.777Z" transform="translate(-203.026 -124.96)"/>
      <g>
        <path class="cls-4" d="M570.674,715.936V741.3c0,1.252,2.9.662,2.9-.341V715.595c0-1.252-2.9-.662-2.9.341Z" transform="translate(-203.026 -124.96)"/>
        <path class="cls-4" d="M590.441,715.938V741.3c0,1.242,2.9.648,2.9-.346V715.592c0-1.242-2.9-.648-2.9.346Z" transform="translate(-203.026 -124.96)"/>
      </g>
    </g>
    <path class="cls-10" d="M878.254,681.644,750.643,531.98a57.272,57.272,0,0,0-14.094-10.169l-1.742-1.257-.153.472a53.276,53.276,0,0,0-5.8-2.4c-43.438-14.079-96.573,29.8-118.68,98.01S605.357,751.549,648.8,765.628a53.29,53.29,0,0,0,6.108,1.458l-.153.472,2.148,0a57.274,57.274,0,0,0,17.379.032l193.936-50Z" transform="translate(-203.026 -124.96)"/>
    <g>
      <path class="cls-2" d="M926.136,706.553l-26.961-8.738L875.495,680.6a8.635,8.635,0,0,0-2.141-1.557l-.265-.192-.024.073a8,8,0,0,0-.882-.366c-6.609-2.142-14.727,4.64-18.132,15.147s-.809,20.762,5.8,22.9a7.989,7.989,0,0,0,.929.221l-.024.073h.327a8.64,8.64,0,0,0,2.647,0l29.278-.053,26.961,8.739c3.3,1.071,7.363-2.32,9.066-7.574S929.441,707.624,926.136,706.553Z" transform="translate(-203.026 -124.96)"/>
      <path class="cls-4" d="M927.6,718.222c-1.2,3.277-6.2,10.217-9.044,4.157-1.221-2.6-.9-5.824-.043-8.468.821-2.532,4.506-9.515,8.227-5.484,2.333,2.527,1.685,6.865.86,9.8-.234.832,2.636.428,2.879-.433,1.214-4.312,1.274-11.931-4.831-12.121-4.939-.154-8.623,4.383-10.014,8.676-1.355,4.181-1.247,11.555,4.464,12.106,5.181.5,8.817-4.371,10.381-8.661C930.754,717.025,927.909,717.365,927.6,718.222Z" transform="translate(-203.026 -124.96)"/>
      <path class="cls-4" d="M893.844,715.862c-6.428-2.808-2.014-18.537,4.829-16.992,1.426.322,2.912-1.679,1-2.11-9.879-2.23-16.911,16.949-7.5,21.059,1.218.532,3.359-1.219,1.672-1.956Z" transform="translate(-203.026 -124.96)"/>
      <path class="cls-4" d="M921.132,724.912l-13.01-4.217c-4.491-1.456-9.253-3.677-13.908-4.508-3.326-.594-7.12-.1-10.485-.092l-18.912.034c-21.595.039-7.264-43.71,7.2-36.528,4.491,2.229,8.718,6.339,12.762,9.279,4.119,3,8.213,6.7,12.656,9.2,3.479,1.958,7.92,2.78,11.715,4.01l15.821,5.128c.818.265,3.435-.974,2.325-1.333l-15.821-5.128c-3.73-1.209-8.746-2.3-11.711-4.045-5.4-3.18-10.383-7.549-15.448-11.232-3.361-2.444-7.015-6.169-10.973-7.594-6.838-2.462-13.847,3.4-17.294,8.717-4.838,7.46-8.237,21.507-.774,28.576,3.458,3.276,7.749,2.477,12.116,2.469l20.889-.038c1.165,0,2.374-.1,3.537-.007,1.2.093-.4-.149.4.024,2.713.583,5.405,1.752,8.045,2.608l18.541,6.009c.818.265,3.435-.973,2.324-1.333Z" transform="translate(-203.026 -124.96)"/>
      <ellipse class="cls-3" cx="910.788" cy="711.039" rx="1.437" ry="2.625" transform="translate(-249.451 1233.269) rotate(-72.042)"/>
      <ellipse class="cls-3" cx="901.275" cy="707.956" rx="1.437" ry="2.625" transform="translate(-253.102 1222.082) rotate(-72.042)"/>
      <ellipse class="cls-4" cx="909.528" cy="711.682" rx="1.437" ry="2.625" transform="translate(-250.934 1232.516) rotate(-72.042)"/>
      <ellipse class="cls-4" cx="900.016" cy="708.599" rx="1.438" ry="2.625" transform="translate(-254.573 1221.346) rotate(-72.043)"/>
    </g>
    <path class="cls-4" d="M1062.37,679.038l-.027-.056c-.369-.759-2.109-.019-2.576.281l-.11.071c-.11.07-.391.315-.322.5.83,2.179-2.364,7.49-3.415,9.309a40.725,40.725,0,0,1-6.976,8.8,58.421,58.421,0,0,1-18.949,11.846c-16,6.519-32.074,7.735-49.088,6.019-15.673-1.58-30.807-3.778-44.991-11.017-3.769-1.923-20.914-9.7-21.061.141-.009.6,2.884.161,2.9-.776.1-6.689,14.5,1.207,16.17,2.048,2.678,1.347,5.361,2.646,8.159,3.73a99.671,99.671,0,0,0,20.488,5.208c13.86,2.194,28.389,4.061,42.388,2.324,12.634-1.568,25.734-5.4,36.679-12.023a51.614,51.614,0,0,0,14.069-12.187,38.376,38.376,0,0,0,4.161-6.573c.414-.839,2.571-7.471,2.154-7.2l-2.576.281.027.056c.39.8,3.193-.169,2.9-.776Z" transform="translate(-203.026 -124.96)"/>
    <path class="cls-4" d="M884.974,719.172c-3.711-2.151-6.289-7.735-2.988-11.342,1.211-1.323-1.577-1.647-2.4-.751-3.975,4.343-1.555,10.974,3.132,13.691,1.018.59,3.6-.816,2.254-1.6Z" transform="translate(-203.026 -124.96)"/>
    <path class="cls-2" d="M387.4,610.1c-5.51,1.7-12.449.928-18.007.18-13.307-1.791-25.774-7.025-37.121-14.077-.793-.493-3.469.672-2.309,1.394,12.159,7.557,25.635,12.992,39.943,14.522,5.633.6,12.34,1.125,17.877-.586,1.7-.525,1.354-1.97-.384-1.433Z" transform="translate(-203.026 -124.96)"/>
    <path class="cls-4" d="M966.487,668.912c-6.746,16.577-16.322,31.826-31.331,41.968-13.989,9.453-33.94,18.218-49.954,8.56-.785-.473-3.309.7-2.71,1.063,15.549,9.377,34.957,2.642,49.364-5.818,18.115-10.638,29.653-26.9,37.51-46.207.295-.724-2.533-.416-2.879.434Z" transform="translate(-203.026 -124.96)"/>
    <g>
      <path class="cls-3" d="M450.95,310.218l-10.027,1.03.595,5.79,9.6-.987.6,5.825-9.6.987.6,5.861,10.027-1.03.6,5.825-16.664,1.712L433.687,306.1l16.664-1.712Z" transform="translate(-203.026 -124.96)"/>
      <path class="cls-3" d="M455.3,315.016l6.248-.642.268,2.613.071-.007a7.132,7.132,0,0,1,5.22-3.712,7.544,7.544,0,0,1,4.071.724l-2.069,5.564a5.3,5.3,0,0,0-3.349-.655c-3.249.334-3.378,3.594-3.331,4.053l.979,9.533-6.248.642Z" transform="translate(-203.026 -124.96)"/>
      <path class="cls-3" d="M472.879,313.21l6.248-.642.268,2.613.071-.007a7.132,7.132,0,0,1,5.22-3.712,7.544,7.544,0,0,1,4.071.724l-2.069,5.564a5.3,5.3,0,0,0-3.349-.655c-3.249.334-3.378,3.594-3.331,4.053l.979,9.533-6.248.642Z" transform="translate(-203.026 -124.96)"/>
      <path class="cls-3" d="M499.8,309.91c6-.617,11.21,2.844,11.79,8.493.573,5.579-3.571,10.036-9.821,10.678-6.531.671-11.319-2.869-11.892-8.447C489.3,314.985,493.692,310.537,499.8,309.91Zm1.387,13.843a4.092,4.092,0,0,0,3.766-4.668,4.242,4.242,0,1,0-8.438.867A4.061,4.061,0,0,0,501.186,323.753Z" transform="translate(-203.026 -124.96)"/>
      <path class="cls-3" d="M513.518,309.035l6.248-.642.268,2.613.071-.007a7.132,7.132,0,0,1,5.22-3.712,7.544,7.544,0,0,1,4.071.724l-2.069,5.564a5.3,5.3,0,0,0-3.349-.655c-3.249.334-3.378,3.594-3.331,4.053l.979,9.533-6.248.642Z" transform="translate(-203.026 -124.96)"/>
      <path class="cls-3" d="M459.69,364.906c.715,1.746,2.425,3.1,5.46,2.793a4.083,4.083,0,0,0,3.731-4.665c-.4-3.848-4.3-4.731-8.082-4.343a12.466,12.466,0,0,0-4.883,1.429l.825-15.926,14.864-1.527.6,5.825-9.179.943-.218,4.125c.247-.025.526-.089.809-.118,5.511-.531,11.095,1.037,11.925,9.122.573,5.579-3.571,10.036-9.821,10.678-6.213.638-9.63-2.4-11.029-5.253Z" transform="translate(-203.026 -124.96)"/>
      <path class="cls-3" d="M487.087,340.542c6.249-.642,12.342,3.8,13.38,13.9,1.11,10.8-4.029,15.648-10.279,16.29s-12.3-3.053-13.411-13.857C475.739,346.774,480.837,341.184,487.087,340.542Zm2.5,24.362c3.178-.326,4.815-3.492,4.169-9.776-.606-5.9-2.9-9.086-6.073-8.76-3.213.33-4.8,3.954-4.2,9.815C484.13,362.467,486.377,365.233,489.589,364.9Z" transform="translate(-203.026 -124.96)"/>
      <path class="cls-3" d="M512.755,337.9c6.249-.642,12.342,3.8,13.38,13.9,1.11,10.8-4.029,15.648-10.279,16.29s-12.3-3.053-13.411-13.857C501.408,344.137,506.506,338.547,512.755,337.9Zm2.5,24.362c3.178-.326,4.815-3.492,4.169-9.776-.606-5.9-2.9-9.086-6.073-8.76-3.213.33-4.8,3.954-4.2,9.815C509.8,359.83,512.045,362.6,515.258,362.266Z" transform="translate(-203.026 -124.96)"/>
    </g>
  </g>
  <g>
    <path class="cls-11" d="M1086.655,359.626H1100v7.754H1077.82V328.608h8.835Z" transform="translate(-203.026 -124.96)"/>
    <path class="cls-11" d="M1117.158,342.566c7.989,0,14.381,5.264,14.381,12.783,0,7.425-6.062,12.736-14.381,12.736-8.7,0-14.522-5.311-14.522-12.736C1102.636,347.83,1109.027,342.566,1117.158,342.566Zm-.048,18.423a5.418,5.418,0,0,0,5.593-5.64,5.617,5.617,0,1,0-11.232,0A5.378,5.378,0,0,0,1117.11,360.989Z" transform="translate(-203.026 -124.96)"/>
    <path class="cls-11" d="M1166.836,344.446l-2.726,5.452a13.581,13.581,0,0,0-5.358-1.5c-1.832,0-2.584.329-2.584,1.457,0,1.269,1.691,1.645,3.76,2.3,3.2.987,7.331,2.773,7.331,7.708,0,7.1-6.485,8.225-11.42,8.225a14.426,14.426,0,0,1-9.306-3.243l3.384-5.687s3.29,2.773,5.969,2.773c1.175,0,2.585-.141,2.585-1.739,0-1.739-2.632-1.88-5.358-3.29-2.443-1.269-4.888-2.96-4.888-6.58,0-4.935,4.184-7.754,10.527-7.754A18.407,18.407,0,0,1,1166.836,344.446Z" transform="translate(-203.026 -124.96)"/>
    <path class="cls-11" d="M1178.3,356.477c0,3.713,3.1,4.982,5.217,4.982,2.679,0,3.854-.517,5.874-2.679l6.016,3.008c-2.726,4.559-7.144,6.3-12.5,6.3-7.284,0-13.253-5.734-13.253-12.736a13.054,13.054,0,0,1,13.253-12.783c7.332,0,12.925,4.324,12.925,12.783a8.53,8.53,0,0,1-.048,1.128Zm9.4-4.606a4.28,4.28,0,0,0-4.559-3.9c-2.867,0-4.465,1.692-4.605,3.9Z" transform="translate(-203.026 -124.96)"/>
    <path class="cls-11" d="M1199.643,343.271h8.318v2.538h.094a9.982,9.982,0,0,1,6.908-3.243c4.418,0,10.574,2.209,10.574,8.929V367.38h-8.318V353.751a4.455,4.455,0,0,0-4.323-4.7,5.128,5.128,0,0,0-4.935,4.7V367.38h-8.318Z" transform="translate(-203.026 -124.96)"/>
    <path class="cls-11" d="M1231.836,334.294h8.318v8.977h5.076v6.344h-5.076v7.661c0,2.256.564,3.337,1.88,3.337a3.935,3.935,0,0,0,2.068-.752l2.067,6.721a13.765,13.765,0,0,1-6.109,1.5c-6.627,0-8.225-4.935-8.225-9.211v-9.259h-3.478v-6.344h3.478Z" transform="translate(-203.026 -124.96)"/>
    <path class="cls-11" d="M1258.2,333.308a4.935,4.935,0,1,1-4.935-4.935A4.934,4.934,0,0,1,1258.2,333.308Zm-9.212,34.073h8.319V343.271h-8.319Z" transform="translate(-203.026 -124.96)"/>
    <path class="cls-11" d="M1263.184,343.271h8.319v2.538h.094a9.982,9.982,0,0,1,6.908-3.243c3.2,0,6.721,1.175,8.413,4.417,2.537-3.055,5.357-4.417,7.989-4.417,4.418,0,9.4,2.209,9.4,8.929V367.38h-8.318V353.751c0-2.4-1.27-4.512-4.23-4.512A3.7,3.7,0,0,0,1287.9,353V367.38h-8.318V353.751c0-2.4-1.269-4.512-4.229-4.512a3.732,3.732,0,0,0-3.854,4.042v14.1h-8.319Z" transform="translate(-203.026 -124.96)"/>
    <path class="cls-11" d="M1322.262,342.566c7.989,0,14.381,5.264,14.381,12.783,0,7.425-6.062,12.736-14.381,12.736-8.7,0-14.522-5.311-14.522-12.736C1307.739,347.83,1314.131,342.566,1322.262,342.566Zm-.048,18.423a5.418,5.418,0,0,0,5.593-5.64,5.617,5.617,0,1,0-11.232,0A5.378,5.378,0,0,0,1322.214,360.989Z" transform="translate(-203.026 -124.96)"/>
    <path class="cls-11" d="M1358.921,344.446,1356.2,349.9a13.581,13.581,0,0,0-5.358-1.5c-1.833,0-2.585.329-2.585,1.457,0,1.269,1.692,1.645,3.76,2.3,3.2.987,7.332,2.773,7.332,7.708,0,7.1-6.485,8.225-11.42,8.225a14.426,14.426,0,0,1-9.306-3.243l3.384-5.687s3.29,2.773,5.969,2.773c1.175,0,2.585-.141,2.585-1.739,0-1.739-2.632-1.88-5.358-3.29-2.443-1.269-4.888-2.96-4.888-6.58,0-4.935,4.183-7.754,10.527-7.754A18.407,18.407,0,0,1,1358.921,344.446Z" transform="translate(-203.026 -124.96)"/>
    <path class="cls-11" d="M1371.641,363.619c0,4.6-3.268,8.32-6.383,10.9l-1.938-1.6a11.013,11.013,0,0,0,2.888-5.319,4.107,4.107,0,0,1-3.268-3.989,4.351,4.351,0,1,1,8.7,0Z" transform="translate(-203.026 -124.96)"/>
    <path class="cls-11" d="M1394.858,347.319a8.868,8.868,0,0,1,6.383,2.432v-1.862h6.726V367.38h-6.649v-2.2h-.076a8.632,8.632,0,0,1-6.383,2.773c-5.7,0-9.688-4.6-9.688-10.3S1389.159,347.319,1394.858,347.319Zm2.014,14.894a4.38,4.38,0,0,0,4.521-4.559,4.541,4.541,0,1,0-9.081,0A4.348,4.348,0,0,0,1396.872,362.213Z" transform="translate(-203.026 -124.96)"/>
    <path class="cls-11" d="M1412.529,334.705h6.726V367.38h-6.726Z" transform="translate(-203.026 -124.96)"/>
    <path class="cls-11" d="M1428.451,369.47c.722,1.178,2.355,2.507,5.281,2.507a4.49,4.49,0,0,0,4.749-4.559v-1.444c-1.443,1.6-3.724,1.976-6.383,1.976-5.7,0-9.688-4.6-9.688-10.3s3.989-10.334,9.688-10.334a8.9,8.9,0,0,1,6.269,2.318h.114v-1.748h6.726v20.023c0,6.535-4.826,9.917-11.475,9.917-4.065,0-8.739-.912-10.79-5.661Zm5.661-7.257a4.38,4.38,0,0,0,4.521-4.559,4.541,4.541,0,1,0-9.081,0A4.348,4.348,0,0,0,1434.112,362.213Z" transform="translate(-203.026 -124.96)"/>
    <path class="cls-11" d="M1459.915,347.319c6.459,0,11.626,4.255,11.626,10.334,0,6-4.9,10.3-11.626,10.3-7.029,0-11.74-4.293-11.74-10.3C1448.175,351.575,1453.342,347.319,1459.915,347.319Zm-.038,14.894a4.381,4.381,0,0,0,4.521-4.559,4.541,4.541,0,1,0-9.081,0A4.348,4.348,0,0,0,1459.877,362.213Z" transform="translate(-203.026 -124.96)"/>
    <path class="cls-11" d="M1500.08,348.839l-2.2,4.408a10.981,10.981,0,0,0-4.332-1.216c-1.481,0-2.089.266-2.089,1.178,0,1.026,1.367,1.33,3.039,1.862,2.584.8,5.927,2.242,5.927,6.231,0,5.737-5.243,6.649-9.232,6.649a11.662,11.662,0,0,1-7.522-2.622l2.735-4.6s2.66,2.242,4.825,2.242c.95,0,2.09-.114,2.09-1.406,0-1.406-2.128-1.52-4.331-2.66-1.976-1.026-3.952-2.394-3.952-5.319,0-3.989,3.382-6.269,8.511-6.269A14.882,14.882,0,0,1,1500.08,348.839Z" transform="translate(-203.026 -124.96)"/>
    <path class="cls-11" d="M1512.051,347.319a8.868,8.868,0,0,1,6.383,2.432v-1.862h6.726V367.38h-6.649v-2.2h-.076a8.632,8.632,0,0,1-6.383,2.773c-5.7,0-9.688-4.6-9.688-10.3S1506.352,347.319,1512.051,347.319Zm2.014,14.894a4.381,4.381,0,0,0,4.521-4.559,4.541,4.541,0,1,0-9.081,0A4.348,4.348,0,0,0,1514.064,362.213Z" transform="translate(-203.026 -124.96)"/>
    <path class="cls-11" d="M1529.722,334.705h6.726V367.38h-6.726Z" transform="translate(-203.026 -124.96)"/>
    <path class="cls-11" d="M1548.455,339.834a3.989,3.989,0,1,1-3.989-3.989A3.989,3.989,0,0,1,1548.455,339.834Zm-7.447,27.546h6.726V347.889h-6.726Z" transform="translate(-203.026 -124.96)"/>
    <path class="cls-11" d="M1551.078,357.654c0-6.079,5.167-10.334,11.74-10.334,6.459,0,11.626,4.255,11.626,10.334,0,6-4.9,10.3-11.626,10.3C1555.789,367.95,1551.078,363.657,1551.078,357.654Zm7.143,0a4.541,4.541,0,1,0,9.081,0,4.541,4.541,0,1,0-9.081,0Zm.8-15.5,2.128,2.925,9.043-5.243-3.458-4.37Z" transform="translate(-203.026 -124.96)"/>
    <path class="cls-11" d="M1587.976,347.889h6.726v2.052h.076a8.07,8.07,0,0,1,5.585-2.622c2.583,0,5.433.95,6.8,3.571,2.052-2.469,4.331-3.571,6.459-3.571,3.571,0,7.6,1.786,7.6,7.219V367.38H1614.5V356.362c0-1.937-1.026-3.647-3.42-3.647a2.991,2.991,0,0,0-3.115,3.04V367.38h-6.725V356.362c0-1.937-1.026-3.647-3.42-3.647a3.017,3.017,0,0,0-3.115,3.268v11.4h-6.726Z" transform="translate(-203.026 -124.96)"/>
    <path class="cls-11" d="M1633.688,347.319a8.868,8.868,0,0,1,6.383,2.432v-1.862h6.726V367.38h-6.649v-2.2h-.076a8.632,8.632,0,0,1-6.383,2.773c-5.7,0-9.688-4.6-9.688-10.3S1627.989,347.319,1633.688,347.319Zm2.014,14.894a4.38,4.38,0,0,0,4.521-4.559,4.541,4.541,0,1,0-9.081,0A4.348,4.348,0,0,0,1635.7,362.213Z" transform="translate(-203.026 -124.96)"/>
    <path class="cls-11" d="M1651.359,334.705h6.726V367.38h-6.726Z" transform="translate(-203.026 -124.96)"/>
    <path class="cls-11" d="M1671.347,363.619a4.351,4.351,0,1,1-4.369-4.37A4.337,4.337,0,0,1,1671.347,363.619Z" transform="translate(-203.026 -124.96)"/>
    <path class="cls-11" d="M1073.937,404.332h8.055l7.9,20.593,7.9-20.593h8.055l-13.146,31.345h-5.623Z" transform="translate(-203.026 -124.96)"/>
    <path class="cls-11" d="M1111.707,425.457c0,3.837,1.025,5.319,3.837,5.319s3.838-1.482,3.838-5.319v-9.271h6.725v10.9c0,6.535-3.268,9.157-10.562,9.157s-10.562-2.622-10.562-9.157v-10.9h6.726Z" transform="translate(-203.026 -124.96)"/>
    <path class="cls-11" d="M1135.875,426.862a3.983,3.983,0,0,0,4.217,4.028c2.166,0,3.115-.418,4.749-2.166l4.863,2.432c-2.2,3.686-5.774,5.091-10.106,5.091a10.323,10.323,0,1,1,0-20.631c5.928,0,10.449,3.5,10.449,10.334a7,7,0,0,1-.038.912Zm7.6-3.723a3.46,3.46,0,0,0-3.686-3.154c-2.317,0-3.609,1.368-3.724,3.154Z" transform="translate(-203.026 -124.96)"/>
    <path class="cls-11" d="M1153.127,403h6.726v32.675h-6.726Z" transform="translate(-203.026 -124.96)"/>
    <path class="cls-11" d="M1173.874,426.787l4.75-10.6h7.979l-10.448,19.491h-4.56l-10.448-19.491h7.979Z" transform="translate(-203.026 -124.96)"/>
    <path class="cls-11" d="M1193.6,426.862a3.983,3.983,0,0,0,4.217,4.028c2.166,0,3.115-.418,4.749-2.166l4.863,2.432c-2.2,3.686-5.774,5.091-10.106,5.091a10.323,10.323,0,1,1,0-20.631c5.928,0,10.449,3.5,10.449,10.334a7,7,0,0,1-.038.912Zm7.6-3.723a3.46,3.46,0,0,0-3.686-3.154c-2.317,0-3.609,1.368-3.724,3.154Z" transform="translate(-203.026 -124.96)"/>
    <path class="cls-11" d="M1229.583,415.616a8.868,8.868,0,0,1,6.383,2.432v-1.862h6.726v19.491h-6.649v-2.2h-.076a8.632,8.632,0,0,1-6.383,2.773c-5.7,0-9.688-4.6-9.688-10.3S1223.884,415.616,1229.583,415.616Zm2.014,14.894a4.38,4.38,0,0,0,4.521-4.559,4.541,4.541,0,1,0-9.081,0A4.348,4.348,0,0,0,1231.6,430.51Z" transform="translate(-203.026 -124.96)"/>
    <path class="cls-11" d="M1265.075,408.131a3.989,3.989,0,1,1-3.989-3.989A3.989,3.989,0,0,1,1265.075,408.131Zm-7.447,27.546h6.726V416.186h-6.726Z" transform="translate(-203.026 -124.96)"/>
    <path class="cls-11" d="M1269.1,416.186h6.726v2.052h.076a8.07,8.07,0,0,1,5.585-2.622c3.571,0,8.549,1.786,8.549,7.219v12.842h-6.726V424.659a3.6,3.6,0,0,0-3.5-3.8,4.146,4.146,0,0,0-3.989,3.8v11.019H1269.1Z" transform="translate(-203.026 -124.96)"/>
    <path class="cls-11" d="M1295.134,408.929h6.725v7.257h4.1v5.129h-4.1v6.193c0,1.824.456,2.7,1.52,2.7a3.179,3.179,0,0,0,1.672-.608l1.672,5.433a11.131,11.131,0,0,1-4.939,1.216c-5.357,0-6.648-3.989-6.648-7.447v-7.485h-2.812v-5.129h2.812Z" transform="translate(-203.026 -124.96)"/>
    <path class="cls-11" d="M1314.589,426.862a3.983,3.983,0,0,0,4.217,4.028c2.166,0,3.116-.418,4.749-2.166l4.863,2.432c-2.2,3.686-5.774,5.091-10.106,5.091a10.323,10.323,0,1,1,0-20.631c5.928,0,10.449,3.5,10.449,10.334a7,7,0,0,1-.038.912Zm7.6-3.723a3.46,3.46,0,0,0-3.686-3.154c-2.317,0-3.609,1.368-3.724,3.154Z" transform="translate(-203.026 -124.96)"/>
    <path class="cls-11" d="M1331.841,416.186h6.726v2.052h.076a8.07,8.07,0,0,1,5.585-2.622c3.571,0,8.549,1.786,8.549,7.219v12.842h-6.726V424.659a3.6,3.6,0,0,0-3.5-3.8,4.146,4.146,0,0,0-3.989,3.8v11.019h-6.726Z" transform="translate(-203.026 -124.96)"/>
    <path class="cls-11" d="M1356.959,416.186h6.726V419h.076a7.634,7.634,0,0,1,5.965-3.381,8.071,8.071,0,0,1,4.255,1.216l-2.812,5.7a5.676,5.676,0,0,0-3.5-1.064c-3.5,0-3.989,3.458-3.989,3.952v10.258h-6.726Z" transform="translate(-203.026 -124.96)"/>
    <path class="cls-11" d="M1383.862,415.616a8.868,8.868,0,0,1,6.383,2.432v-1.862h6.726v19.491h-6.649v-2.2h-.076a8.632,8.632,0,0,1-6.383,2.773c-5.7,0-9.688-4.6-9.688-10.3S1378.163,415.616,1383.862,415.616Zm2.014,14.894a4.38,4.38,0,0,0,4.521-4.559,4.541,4.541,0,1,0-9.081,0A4.348,4.348,0,0,0,1385.876,430.51Z" transform="translate(-203.026 -124.96)"/>
    <path class="cls-11" d="M1401.533,416.186h6.726V419h.076a7.634,7.634,0,0,1,5.965-3.381,8.071,8.071,0,0,1,4.255,1.216l-2.812,5.7a5.676,5.676,0,0,0-3.5-1.064c-3.5,0-3.989,3.458-3.989,3.952v10.258h-6.726Z" transform="translate(-203.026 -124.96)"/>
    <path class="cls-11" d="M1420.457,403h6.726v32.675h-6.726Z" transform="translate(-203.026 -124.96)"/>
    <path class="cls-11" d="M1442.078,415.616c6.459,0,11.626,4.255,11.626,10.334,0,6-4.9,10.3-11.626,10.3-7.029,0-11.74-4.293-11.74-10.3C1430.338,419.872,1435.5,415.616,1442.078,415.616Zm-.038,14.894a4.38,4.38,0,0,0,4.521-4.559,4.541,4.541,0,1,0-9.081,0A4.348,4.348,0,0,0,1442.04,430.51Z" transform="translate(-203.026 -124.96)"/>
    <path class="cls-11" d="M1467.235,416.186h6.726v2.052h.076a8.07,8.07,0,0,1,5.585-2.622c2.583,0,5.433.95,6.8,3.571,2.052-2.469,4.331-3.571,6.459-3.571,3.571,0,7.6,1.786,7.6,7.219v12.842h-6.725V424.659c0-1.937-1.026-3.647-3.42-3.647a2.991,2.991,0,0,0-3.115,3.04v11.626H1480.5V424.659c0-1.937-1.026-3.647-3.42-3.647a3.017,3.017,0,0,0-3.115,3.268v11.4h-6.726Z" transform="translate(-203.026 -124.96)"/>
    <path class="cls-11" d="M1503.26,425.951c0-5.7,3.989-10.334,9.688-10.334a8.868,8.868,0,0,1,6.383,2.432v-1.862h6.726v19.491h-6.649v-2.2h-.076a8.632,8.632,0,0,1-6.383,2.773C1507.249,436.247,1503.26,431.65,1503.26,425.951Zm7.143,0a4.541,4.541,0,1,0,9.081,0,4.541,4.541,0,1,0-9.081,0Zm2.735-15.5,2.128,2.925,9.043-5.243-3.458-4.37Z" transform="translate(-203.026 -124.96)"/>
    <path class="cls-11" d="M1545.476,417.136l-2.2,4.408a10.981,10.981,0,0,0-4.332-1.216c-1.481,0-2.089.266-2.089,1.178,0,1.026,1.367,1.33,3.039,1.862,2.584.8,5.928,2.242,5.928,6.231,0,5.737-5.244,6.649-9.233,6.649a11.662,11.662,0,0,1-7.522-2.622l2.735-4.6s2.66,2.242,4.825,2.242c.95,0,2.09-.114,2.09-1.406,0-1.406-2.128-1.52-4.331-2.66-1.976-1.026-3.952-2.394-3.952-5.319,0-3.989,3.382-6.269,8.511-6.269A14.882,14.882,0,0,1,1545.476,417.136Z" transform="translate(-203.026 -124.96)"/>
    <path class="cls-11" d="M1560.678,408.929h6.725v7.257h4.1v5.129h-4.1v6.193c0,1.824.456,2.7,1.52,2.7a3.179,3.179,0,0,0,1.672-.608l1.672,5.433a11.131,11.131,0,0,1-4.939,1.216c-5.357,0-6.648-3.989-6.648-7.447v-7.485h-2.812v-5.129h2.813Z" transform="translate(-203.026 -124.96)"/>
    <path class="cls-11" d="M1582.754,415.616a8.868,8.868,0,0,1,6.383,2.432v-1.862h6.726v19.491h-6.649v-2.2h-.076a8.632,8.632,0,0,1-6.383,2.773c-5.7,0-9.688-4.6-9.688-10.3S1577.055,415.616,1582.754,415.616Zm2.014,14.894a4.381,4.381,0,0,0,4.521-4.559,4.541,4.541,0,1,0-9.081,0A4.348,4.348,0,0,0,1584.768,430.51Z" transform="translate(-203.026 -124.96)"/>
    <path class="cls-11" d="M1600.425,416.186h6.726V419h.076a7.634,7.634,0,0,1,5.965-3.381,8.071,8.071,0,0,1,4.255,1.216l-2.812,5.7a5.676,5.676,0,0,0-3.5-1.064c-3.5,0-3.989,3.458-3.989,3.952v10.258h-6.726Z" transform="translate(-203.026 -124.96)"/>
    <path class="cls-11" d="M1627.632,415.616a8.868,8.868,0,0,1,6.383,2.432V403h6.726v32.675h-6.649v-2.2h-.076a8.632,8.632,0,0,1-6.383,2.773c-5.7,0-9.688-4.6-9.688-10.3S1621.933,415.616,1627.632,415.616Zm2.014,14.894a4.38,4.38,0,0,0,4.521-4.559,4.541,4.541,0,1,0-9.081,0A4.348,4.348,0,0,0,1629.646,430.51Z" transform="translate(-203.026 -124.96)"/>
    <path class="cls-11" d="M1650.889,426.862a3.983,3.983,0,0,0,4.217,4.028c2.166,0,3.115-.418,4.749-2.166l4.863,2.432c-2.2,3.686-5.774,5.091-10.106,5.091a10.323,10.323,0,1,1,0-20.631c5.928,0,10.449,3.5,10.449,10.334a7,7,0,0,1-.038.912Zm7.6-3.723a3.46,3.46,0,0,0-3.686-3.154c-2.317,0-3.609,1.368-3.724,3.154Z" transform="translate(-203.026 -124.96)"/>
  </g>
  <g>
    <path class="cls-11" d="M1723.617,961.49l-2.374,4.7a11.738,11.738,0,0,0-4.627-1.317c-1.584-.006-2.235.276-2.239,1.251,0,1.1,1.457,1.427,3.242,2,2.76.864,6.329,2.421,6.314,6.687-.023,6.135-5.633,7.089-9.9,7.073a12.467,12.467,0,0,1-8.033-2.833l2.942-4.905s2.836,2.408,5.151,2.417c1.016,0,2.236-.114,2.24-1.5.005-1.5-2.269-1.634-4.621-2.861-2.109-1.1-4.216-2.576-4.2-5.7.016-4.265,3.641-6.69,9.126-6.669A15.912,15.912,0,0,1,1723.617,961.49Z" transform="translate(-203.026 -124.96)"/>
    <path class="cls-11" d="M1738.614,959.921c6.907.026,12.415,4.6,12.391,11.1-.024,6.419-5.282,10.991-12.473,10.964-7.516-.028-12.537-4.638-12.513-11.057C1726.043,964.424,1731.585,959.895,1738.614,959.921Zm-.1,15.926a4.684,4.684,0,0,0,4.853-4.857,4.856,4.856,0,1,0-9.71-.036A4.65,4.65,0,0,0,1738.514,975.847Z" transform="translate(-203.026 -124.96)"/>
    <path class="cls-11" d="M1754.335,960.589l7.191.027-.008,2.194h.081a8.631,8.631,0,0,1,5.983-2.781c3.819.014,9.134,1.944,9.113,7.753l-.052,13.733-7.191-.027.045-11.782a3.853,3.853,0,0,0-3.723-4.077,4.434,4.434,0,0,0-4.281,4.047l-.045,11.782-7.191-.027Z" transform="translate(-203.026 -124.96)"/>
    <path class="cls-11" d="M1787.121,972.129a4.26,4.26,0,0,0,4.493,4.324c2.316.009,3.333-.435,5.087-2.3l5.191,2.62c-2.371,3.932-6.2,5.421-10.827,5.4a11.039,11.039,0,1,1,.082-22.061c6.338.024,11.159,3.78,11.132,11.092a7.48,7.48,0,0,1-.044.975Zm8.141-3.951a3.7,3.7,0,0,0-3.929-3.387c-2.479-.009-3.865,1.448-3.994,3.357Z" transform="translate(-203.026 -124.96)"/>
  </g>
  <rect class="cls-11" x="1574.464" y="759.607" width="3.659" height="51.227" rx="0.933" ry="0.933"/>
  <rect class="cls-11" x="1567.669" y="771.107" width="3.659" height="28.227" rx="0.933" ry="0.933"/>
  <rect class="cls-11" x="1560.351" y="777.38" width="3.659" height="15.159" rx="0.933" ry="0.933"/>
  <rect class="cls-11" x="1554.078" y="771.107" width="3.659" height="28.227" rx="0.933" ry="0.933"/>
  <rect class="cls-11" x="1546.76" y="777.903" width="3.659" height="14.636" rx="0.933" ry="0.933"/>
  <rect class="cls-11" x="1539.442" y="771.107" width="3.659" height="28.227" rx="0.933" ry="0.933"/>
  <rect class="cls-11" x="1532.124" y="777.903" width="3.659" height="15.682" rx="0.933" ry="0.933"/>
  <rect class="cls-11" x="1526.374" y="779.994" width="3.659" height="10.454" rx="0.933" ry="0.933"/>
  <rect class="cls-11" x="1581.783" y="771.107" width="3.659" height="27.704" rx="0.933" ry="0.933"/>
  <rect class="cls-11" x="1588.055" y="779.994" width="3.659" height="9.932" rx="0.933" ry="0.933"/>
  <g class="cls-12">
    <path class="cls-11" d="M1750.51,875.2l-22.853,22.237a1.73,1.73,0,0,1-1.206.49h-11.787a1.729,1.729,0,0,0-1.729,1.729v21.658a1.729,1.729,0,0,0,1.729,1.729h11.8a1.729,1.729,0,0,1,1.2.483l22.857,22a1.729,1.729,0,0,0,2.929-1.246V876.437A1.729,1.729,0,0,0,1750.51,875.2Zm.339,62.96a1.807,1.807,0,0,1-.017.223v4.209l-23-22.477H1715.81V900.771h12.023l23-22.477v4.084a1.814,1.814,0,0,1,.017.222Z" transform="translate(-203.026 -124.96)"/>
  </g>
  <g>
    <path class="cls-11" d="M1713.367,996.653a6.24,6.24,0,0,1-2.346.417A3.9,3.9,0,0,1,1708,995.82a4.028,4.028,0,0,1-1.072-2.847,3.955,3.955,0,0,1,1.131-2.942,4.051,4.051,0,0,1,2.978-1.12,7.977,7.977,0,0,1,2.335.417v1.834h-.7l-.179-1.06a.344.344,0,0,0-.19-.274,2.754,2.754,0,0,0-1.2-.262,2.544,2.544,0,0,0-2,.846,3.627,3.627,0,0,0-.81,2.525,3.843,3.843,0,0,0,.786,2.561,2.7,2.7,0,0,0,2.18.929,2.483,2.483,0,0,0,.953-.155.322.322,0,0,0,.214-.238l.274-1.275h.679Z" transform="translate(-203.026 -124.96)"/>
    <path class="cls-11" d="M1720.394,996.927h-1.882v-.679a3.213,3.213,0,0,1-1.918.774q-1.644,0-1.644-1.882v-3.228h-.834v-.4l1.465-.453h.488v3.859q0,1.3,1.144,1.3a2.866,2.866,0,0,0,1.3-.31v-3.99h-.834v-.4l1.453-.453h.477v5.11a.238.238,0,0,0,.262.262l.524.036Z" transform="translate(-203.026 -124.96)"/>
    <path class="cls-11" d="M1725.063,995.193a1.629,1.629,0,0,1-.6,1.349,2.611,2.611,0,0,1-1.673.481,4.515,4.515,0,0,1-1.656-.261v-1.585h.608l.143,1.015a1.9,1.9,0,0,0,1.06.3,1.11,1.11,0,0,0,.78-.267.835.835,0,0,0,.291-.636.88.88,0,0,0-.381-.737,8.161,8.161,0,0,0-1.072-.571,3.487,3.487,0,0,1-1-.642,1.2,1.2,0,0,1-.346-.867,1.543,1.543,0,0,1,.566-1.26,2.425,2.425,0,0,1,1.578-.464,3.714,3.714,0,0,1,1.525.274v1.406h-.616l-.095-.846a1.406,1.406,0,0,0-.9-.274q-.961,0-.96.8a.794.794,0,0,0,.273.63,4.831,4.831,0,0,0,1.044.594Q1725.063,994.278,1725.063,995.193Z" transform="translate(-203.026 -124.96)"/>
    <path class="cls-11" d="M1729.494,996.677a4.915,4.915,0,0,1-1.62.286,1.442,1.442,0,0,1-.983-.268,1.27,1.27,0,0,1-.291-.959v-3.8h-.762v-.393l.8-.381.533-1.143h.521v1.322h1.691v.6H1727.7V995.1a1.436,1.436,0,0,0,.227.935.933.933,0,0,0,.731.256,3.664,3.664,0,0,0,.839-.1Z" transform="translate(-203.026 -124.96)"/>
    <path class="cls-11" d="M1735.676,994.057a3,3,0,0,1-.78,2.126,2.687,2.687,0,0,1-2.066.84,2.657,2.657,0,0,1-2.06-.846,2.967,2.967,0,0,1-.762-2.12,3.069,3.069,0,0,1,.774-2.156,2.672,2.672,0,0,1,2.073-.846,2.626,2.626,0,0,1,2.06.852A3.1,3.1,0,0,1,1735.676,994.057Zm-1.238-.012a3.387,3.387,0,0,0-.393-1.715,1.348,1.348,0,0,0-1.2-.738,1.313,1.313,0,0,0-1.2.738,3.431,3.431,0,0,0-.381,1.715,3.319,3.319,0,0,0,.393,1.7,1.322,1.322,0,0,0,1.191.738,1.355,1.355,0,0,0,1.214-.738A3.36,3.36,0,0,0,1734.437,994.045Z" transform="translate(-203.026 -124.96)"/>
    <path class="cls-11" d="M1746.062,996.927h-2.68v-.464l.489-.036a.241.241,0,0,0,.25-.262v-3.037q0-1.215-1.066-1.215a2.781,2.781,0,0,0-1.269.345v3.907a.242.242,0,0,0,.254.262l.508.036v.464h-2.608v-.464l.5-.036a.24.24,0,0,0,.25-.262v-3.1q0-1.156-1.053-1.156a2.564,2.564,0,0,0-1.281.345v3.907a.242.242,0,0,0,.254.262l.509.036v.464h-2.692v-.464l.584-.036a.233.233,0,0,0,.25-.262v-4.2h-.822v-.393l1.432-.453h.485v.667a4.173,4.173,0,0,1,1.944-.727,1.383,1.383,0,0,1,1.313.81,4.338,4.338,0,0,1,2.064-.81,1.412,1.412,0,0,1,1.253.6,2.188,2.188,0,0,1,.31,1.215v3.3a.233.233,0,0,0,.25.262l.572.036Z" transform="translate(-203.026 -124.96)"/>
    <path class="cls-11" d="M1751.743,996.332a4.228,4.228,0,0,1-2.263.691,2.691,2.691,0,0,1-1.918-.7,2.858,2.858,0,0,1-.846-2.2,3.12,3.12,0,0,1,.786-2.222,2.635,2.635,0,0,1,2.013-.839,2.1,2.1,0,0,1,1.667.679,2.6,2.6,0,0,1,.56,1.751c0,.151,0,.262-.012.333h-3.859a3.061,3.061,0,0,0,.417,1.691,1.745,1.745,0,0,0,1.572.786,3.483,3.483,0,0,0,1.882-.691Zm-1.191-3.049v-.262a1.628,1.628,0,0,0-.292-1.006,1.014,1.014,0,0,0-.864-.387,1.308,1.308,0,0,0-1.006.453,1.91,1.91,0,0,0-.459,1.2Z" transform="translate(-203.026 -124.96)"/>
    <path class="cls-11" d="M1756.77,992.4h-.467a.83.83,0,0,0-.647-.321,1.74,1.74,0,0,0-1.2.738v3.347a.234.234,0,0,0,.252.262l.8.036v.464h-2.978v-.464l.584-.047a.24.24,0,0,0,.25-.261v-4.193h-.858v-.393l1.468-.453h.485v1.132q.514-.572.706-.738a1.463,1.463,0,0,1,.874-.453,1.53,1.53,0,0,1,.73.166Z" transform="translate(-203.026 -124.96)"/>
    <path class="cls-11" d="M1767.311,996.653a6.24,6.24,0,0,1-2.347.417,3.9,3.9,0,0,1-3.025-1.251,4.027,4.027,0,0,1-1.072-2.847,3.954,3.954,0,0,1,1.132-2.942,4.05,4.05,0,0,1,2.978-1.12,7.977,7.977,0,0,1,2.334.417v1.834h-.7l-.179-1.06a.345.345,0,0,0-.191-.274,2.754,2.754,0,0,0-1.2-.262,2.543,2.543,0,0,0-2,.846,3.628,3.628,0,0,0-.81,2.525,3.843,3.843,0,0,0,.786,2.561,2.7,2.7,0,0,0,2.18.929,2.488,2.488,0,0,0,.953-.155.324.324,0,0,0,.214-.238l.274-1.275h.679Z" transform="translate(-203.026 -124.96)"/>
    <path class="cls-11" d="M1773.921,994.057a3,3,0,0,1-.78,2.126,2.687,2.687,0,0,1-2.066.84,2.658,2.658,0,0,1-2.061-.846,2.967,2.967,0,0,1-.762-2.12,3.069,3.069,0,0,1,.774-2.156,2.674,2.674,0,0,1,2.073-.846,2.626,2.626,0,0,1,2.06.852A3.1,3.1,0,0,1,1773.921,994.057Zm-1.238-.012a3.383,3.383,0,0,0-.393-1.715,1.348,1.348,0,0,0-1.2-.738,1.313,1.313,0,0,0-1.2.738,3.426,3.426,0,0,0-.382,1.715,3.319,3.319,0,0,0,.393,1.7,1.322,1.322,0,0,0,1.191.738,1.356,1.356,0,0,0,1.215-.738A3.36,3.36,0,0,0,1772.683,994.045Z" transform="translate(-203.026 -124.96)"/>
    <path class="cls-11" d="M1784.308,996.927h-2.68v-.464l.488-.036a.24.24,0,0,0,.25-.262v-3.037q0-1.215-1.065-1.215a2.781,2.781,0,0,0-1.269.345v3.907a.242.242,0,0,0,.254.262l.508.036v.464h-2.608v-.464l.5-.036a.241.241,0,0,0,.25-.262v-3.1q0-1.156-1.054-1.156a2.566,2.566,0,0,0-1.281.345v3.907a.242.242,0,0,0,.254.262l.508.036v.464h-2.692v-.464l.584-.036a.233.233,0,0,0,.25-.262v-4.2h-.822v-.393l1.432-.453h.485v.667a4.175,4.175,0,0,1,1.945-.727,1.383,1.383,0,0,1,1.312.81,4.338,4.338,0,0,1,2.064-.81,1.41,1.41,0,0,1,1.253.6,2.184,2.184,0,0,1,.311,1.215v3.3a.233.233,0,0,0,.25.262l.572.036Z" transform="translate(-203.026 -124.96)"/>
    <path class="cls-11" d="M1789.155,988.78a.643.643,0,0,1-.553.643q-.024-.024-.559-.4t-.548-.387q-.674.346-.7,1.8v.905h1.489v.6H1786.8v4.228a.235.235,0,0,0,.253.262l.712.036v.464h-2.895v-.464l.584-.036a.233.233,0,0,0,.25-.262v-4.228h-.762v-.405l.762-.214a4.168,4.168,0,0,1,.4-1.941,2.171,2.171,0,0,1,2.025-1.31,1.208,1.208,0,0,1,.756.209A.622.622,0,0,1,1789.155,988.78Z" transform="translate(-203.026 -124.96)"/>
    <path class="cls-11" d="M1794.515,994.057a3,3,0,0,1-.78,2.126,2.687,2.687,0,0,1-2.066.84,2.658,2.658,0,0,1-2.061-.846,2.967,2.967,0,0,1-.762-2.12,3.069,3.069,0,0,1,.774-2.156,2.674,2.674,0,0,1,2.073-.846,2.626,2.626,0,0,1,2.06.852A3.1,3.1,0,0,1,1794.515,994.057Zm-1.238-.012a3.383,3.383,0,0,0-.393-1.715,1.348,1.348,0,0,0-1.2-.738,1.313,1.313,0,0,0-1.2.738,3.426,3.426,0,0,0-.382,1.715,3.319,3.319,0,0,0,.393,1.7,1.322,1.322,0,0,0,1.191.738,1.356,1.356,0,0,0,1.215-.738A3.36,3.36,0,0,0,1793.276,994.045Z" transform="translate(-203.026 -124.96)"/>
    <path class="cls-11" d="M1799.529,992.4h-.467a.83.83,0,0,0-.647-.321,1.74,1.74,0,0,0-1.2.738v3.347a.234.234,0,0,0,.252.262l.8.036v.464h-2.978v-.464l.584-.047a.24.24,0,0,0,.25-.261v-4.193h-.858v-.393l1.468-.453h.485v1.132q.514-.572.706-.738a1.463,1.463,0,0,1,.874-.453,1.53,1.53,0,0,1,.73.166Z" transform="translate(-203.026 -124.96)"/>
    <path class="cls-11" d="M1803.627,996.677a4.917,4.917,0,0,1-1.62.286,1.44,1.44,0,0,1-.983-.268,1.27,1.27,0,0,1-.292-.959v-3.8h-.762v-.393l.8-.381.533-1.143h.521v1.322h1.691v.6h-1.691V995.1a1.436,1.436,0,0,0,.228.935.933.933,0,0,0,.731.256,3.666,3.666,0,0,0,.839-.1Z" transform="translate(-203.026 -124.96)"/>
  </g>
  <path class="cls-11" d="M1806.968,960.492v-5.776h2.561a3.41,3.41,0,0,1,1.174.156,1.282,1.282,0,0,1,.642.55,1.638,1.638,0,0,1,.24.871,1.455,1.455,0,0,1-.4,1.036,2.016,2.016,0,0,1-1.23.535,1.994,1.994,0,0,1,.461.288,3.971,3.971,0,0,1,.634.768l1.005,1.572h-.962l-.764-1.2q-.335-.521-.552-.8a1.725,1.725,0,0,0-.388-.386,1.157,1.157,0,0,0-.349-.154,2.3,2.3,0,0,0-.426-.028h-.887v2.565Zm.764-3.227h1.643a2.461,2.461,0,0,0,.82-.108.873.873,0,0,0,.449-.347.938.938,0,0,0,.154-.518.862.862,0,0,0-.3-.674,1.393,1.393,0,0,0-.94-.264h-1.828Z" transform="translate(-203.026 -124.96)"/>
  <path class="cls-11" d="M1809.115,963.236a5.75,5.75,0,1,1,5.75-5.75A5.756,5.756,0,0,1,1809.115,963.236Zm0-10.977a5.227,5.227,0,1,0,5.227,5.227A5.233,5.233,0,0,0,1809.115,952.259Z" transform="translate(-203.026 -124.96)"/>
  <g>
    <rect class="cls-11" x="1198.464" y="372.607" width="3.659" height="51.227" rx="0.933" ry="0.933"/>
    <rect class="cls-11" x="1191.669" y="384.107" width="3.659" height="28.227" rx="0.933" ry="0.933"/>
    <rect class="cls-11" x="1184.351" y="390.38" width="3.659" height="15.159" rx="0.933" ry="0.933"/>
    <rect class="cls-11" x="1178.078" y="384.107" width="3.659" height="28.227" rx="0.933" ry="0.933"/>
    <rect class="cls-11" x="1170.76" y="390.903" width="3.659" height="14.636" rx="0.933" ry="0.933"/>
    <rect class="cls-11" x="1163.442" y="384.107" width="3.659" height="28.227" rx="0.933" ry="0.933"/>
    <rect class="cls-11" x="1156.124" y="390.903" width="3.659" height="15.682" rx="0.933" ry="0.933"/>
    <rect class="cls-11" x="1150.374" y="392.994" width="3.659" height="10.454" rx="0.933" ry="0.933"/>
    <rect class="cls-11" x="1205.783" y="384.107" width="3.659" height="27.704" rx="0.933" ry="0.933"/>
    <rect class="cls-11" x="1212.055" y="392.994" width="3.659" height="9.932" rx="0.933" ry="0.933"/>
    <g class="cls-12">
      <path class="cls-11" d="M1374.51,488.2l-22.853,22.237a1.73,1.73,0,0,1-1.206.49h-11.787a1.729,1.729,0,0,0-1.729,1.729v21.658a1.729,1.729,0,0,0,1.729,1.729h11.8a1.729,1.729,0,0,1,1.2.483l22.857,22a1.729,1.729,0,0,0,2.929-1.246V489.437A1.729,1.729,0,0,0,1374.51,488.2Zm.339,62.96a1.807,1.807,0,0,1-.017.223v4.209l-23-22.477H1339.81V513.771h12.023l23-22.477v4.084a1.814,1.814,0,0,1,.017.222Z" transform="translate(-203.026 -124.96)"/>
    </g>
  </g>
</svg>
