<svg id="Capa_1" data-name="Capa 1" xmlns="http://www.w3.org/2000/svg" viewBox="0 0 1920 831.893">
  <defs>
    <style>
      .cls-1 {
        opacity: 0.26;
      }

      .cls-2 {
        fill: #e4ebec;
      }

      .cls-3 {
        fill: #fff;
      }

      .cls-4 {
        fill: #f0efef;
      }

      .cls-5 {
        fill: #bcbebf;
      }

      .cls-6 {
        fill: #908f90;
      }

      .cls-7 {
        fill: #dfe5e6;
      }

      .cls-8 {
        fill: #191b25;
      }

      .cls-9 {
        fill: #7c2a58;
      }

      .cls-10 {
        opacity: 0.53;
      }
    </style>
  </defs>
  <title>error404</title>
  <g>
    <g class="cls-1">
      <path class="cls-2" d="M1920,835.923c-135.079-42.611-362.691-78.388-580.954-116.283-402.309-69.85-915,3.611-1125.911,19.136C108.836,746.453,43.871,760.721,0,790.237v242.88C56.53,1054.406,132.558,1069,206.643,1079H1782.718c53.616-14.315,93.391-34.525,137.282-61.609Z" transform="translate(0 -247.107)"/>
    </g>
    <g id="_Group_" data-name="&lt;Group&gt;">
      <g id="_Group_2" data-name="&lt;Group&gt;">
        <rect class="cls-3" x="1044.248" y="792.57" width="292.122" height="40.844" rx="10.808" ry="10.808" transform="translate(2380.617 1378.877) rotate(180)"/>
      </g>
      <g id="_Group_3" data-name="&lt;Group&gt;">
        <path class="cls-3" d="M1040.128,847.515h103.48A16.337,16.337,0,0,1,1159.9,863.8h0a16.337,16.337,0,0,1-16.289,16.289h-103.48a16.337,16.337,0,0,1-16.289-16.289h0A16.337,16.337,0,0,1,1040.128,847.515Z" transform="translate(0 -247.107)"/>
      </g>
      <g id="_Group_4" data-name="&lt;Group&gt;">
        <rect class="cls-3" x="1004.477" y="747.35" width="136.057" height="32.578" rx="8.621" ry="8.621" transform="translate(2145.011 1280.171) rotate(-180)"/>
      </g>
      <g id="_Group_5" data-name="&lt;Group&gt;">
        <path class="cls-3" d="M1075.122,778.631c5.045,0,9.135,3.12,9.135,6.969s-4.09,6.969-9.135,6.969h39.856c-5.045,0-9.135-3.12-9.135-6.969s4.09-6.969,9.135-6.969Z" transform="translate(0 -247.107)"/>
      </g>
      <g id="_Group_6" data-name="&lt;Group&gt;">
        <path class="cls-3" d="M1062.211,832.965c5.266,0,9.535,3.257,9.535,7.275s-4.269,7.275-9.535,7.275h41.6c-5.266,0-9.535-3.257-9.535-7.275s4.269-7.275,9.535-7.275Z" transform="translate(0 -247.107)"/>
      </g>
    </g>
    <g id="_Group_7" data-name="&lt;Group&gt;">
      <g id="_Group_8" data-name="&lt;Group&gt;">
        <rect class="cls-4" x="1382.107" y="421.928" width="292.122" height="40.844" rx="10.808" ry="10.808"/>
      </g>
      <g id="_Group_9" data-name="&lt;Group&gt;">
        <path class="cls-4" d="M1678.349,654.934H1574.87a16.337,16.337,0,0,1-16.289-16.289h0a16.337,16.337,0,0,1,16.289-16.289h103.48a16.337,16.337,0,0,1,16.289,16.289h0A16.337,16.337,0,0,1,1678.349,654.934Z" transform="translate(0 -247.107)"/>
      </g>
      <g id="_Group_10" data-name="&lt;Group&gt;">
        <path class="cls-4" d="M1697.711,755.1h-103.48a16.337,16.337,0,0,1-16.289-16.289h0a16.337,16.337,0,0,1,16.289-16.289h103.48A16.337,16.337,0,0,1,1714,738.81h0A16.337,16.337,0,0,1,1697.711,755.1Z" transform="translate(0 -247.107)"/>
      </g>
      <g id="_Group_11" data-name="&lt;Group&gt;">
        <path class="cls-4" d="M1643.355,723.818c-5.045,0-9.135-3.12-9.135-6.969s4.09-6.969,9.135-6.969H1603.5c5.045,0,9.135,3.12,9.135,6.969s-4.09,6.969-9.135,6.969Z" transform="translate(0 -247.107)"/>
      </g>
      <g id="_Group_12" data-name="&lt;Group&gt;">
        <path class="cls-4" d="M1656.266,669.484c-5.266,0-9.535-3.257-9.535-7.275s4.269-7.275,9.535-7.275h-41.6c5.266,0,9.535,3.257,9.535,7.275s-4.269,7.275-9.535,7.275Z" transform="translate(0 -247.107)"/>
      </g>
    </g>
    <g>
      <rect class="cls-3" x="1226.953" y="495.457" width="320.152" height="213.632" rx="13.256" ry="13.256"/>
      <rect class="cls-5" x="1232.941" y="501.445" width="320.152" height="213.632" rx="13.256" ry="13.256"/>
      <path class="cls-6" d="M1537.234,957.394h-300.41a11.081,11.081,0,0,1-11.069-11.068V752.435a1.2,1.2,0,1,1,2.4,0V946.325a8.683,8.683,0,0,0,8.673,8.673h300.41a8.683,8.683,0,0,0,8.673-8.673V752.435a8.683,8.683,0,0,0-8.673-8.673H1373.2a1.2,1.2,0,0,1,0-2.4h164.035a11.081,11.081,0,0,1,11.068,11.068V946.325A11.081,11.081,0,0,1,1537.234,957.394Z" transform="translate(0 -247.107)"/>
      <g>
        <g id="_Group_13" data-name="&lt;Group&gt;">
          <path class="cls-3" d="M1365.815,631.2l-26.872,160.931a7.2,7.2,0,0,0,5.931,8.282l145,24.212a7.2,7.2,0,0,0,8.3-5.905l4.188-25.081,2.189-13.843,25.519-152.827a7.2,7.2,0,0,0-5.931-8.282l-114.1-19.052-44.216,31.534Z" transform="translate(0 -247.107)"/>
          <path class="cls-6" d="M1491.066,825.923a8.435,8.435,0,0,1-1.393-.116l-145-24.212a8.411,8.411,0,0,1-6.915-9.66L1364.633,631l0-.018.006-.034a1.2,1.2,0,0,1,.483-.76l44.216-31.533a1.191,1.191,0,0,1,.893-.206l114.1,19.052a8.4,8.4,0,0,1,6.915,9.66l-25.519,152.827-2.187,13.833-4.19,25.091A8.41,8.41,0,0,1,1491.066,825.923ZM1366.92,631.856l-26.8,160.474a6.013,6.013,0,0,0,4.947,6.9l145,24.212a6.008,6.008,0,0,0,6.922-4.921l4.188-25.082,2.187-13.833,25.521-152.838a6,6,0,0,0-4.947-6.9L1410.328,600.9Zm-1.1-.654.034.006Z" transform="translate(0 -247.107)"/>
        </g>
        <g id="_Group_14" data-name="&lt;Group&gt;">
          <path class="cls-6" d="M1397.556,637.675a8.794,8.794,0,0,1-1.449-.121l-30.5-5.093a1.2,1.2,0,0,1-.5-2.156l44.313-31.632a1.2,1.2,0,0,1,1.877,1.172l-5.094,30.5A8.786,8.786,0,0,1,1397.556,637.675Zm-28.705-7.1,27.651,4.617a6.375,6.375,0,0,0,7.339-5.239l4.617-27.65Z" transform="translate(0 -247.107)"/>
        </g>
        <g>
          <path class="cls-5" d="M1464.739,726.555a1.812,1.812,0,0,1-.3-.025l-66.819-11.16a1.8,1.8,0,0,1,.592-3.544l66.819,11.16a1.8,1.8,0,0,1-.294,3.568Z" transform="translate(0 -247.107)"/>
          <path class="cls-6" d="M1486.82,775.141a1.208,1.208,0,0,1-.2-.017l-125.767-21a1.2,1.2,0,0,1,.395-2.362l125.767,21a1.2,1.2,0,0,1-.2,2.379Z" transform="translate(0 -247.107)"/>
          <path class="cls-6" d="M1489.776,757.436a1.208,1.208,0,0,1-.2-.017l-125.767-21a1.2,1.2,0,0,1,.395-2.363l125.766,21a1.2,1.2,0,0,1-.2,2.379Z" transform="translate(0 -247.107)"/>
          <path class="cls-6" d="M1421.452,782.422a1.212,1.212,0,0,1-.2-.017L1357.9,771.824a1.2,1.2,0,0,1,.395-2.362l63.356,10.581a1.2,1.2,0,0,1-.2,2.379Z" transform="translate(0 -247.107)"/>
        </g>
        <path class="cls-6" d="M1435.689,669.014a39.995,39.995,0,0,1,6.595.551c15.869,2.65,23.716,12.758,24.042,13.187a1.2,1.2,0,0,1-1.906,1.45c-.074-.1-7.638-9.788-22.53-12.275a36.633,36.633,0,0,0-25.548,5.044,1.2,1.2,0,0,1-1.4-1.942A37.65,37.65,0,0,1,1435.689,669.014Z" transform="translate(0 -247.107)"/>
        <path class="cls-6" d="M1543.926,729.986a1.2,1.2,0,0,1-.329-.046c-25.175-7.184-27.324-27.387-26.705-31.067a1.2,1.2,0,0,1,2.362.4c-.034.2-.847,20.991,25,28.366a1.2,1.2,0,0,1-.328,2.35Z" transform="translate(0 -247.107)"/>
        <path class="cls-6" d="M1358.769,674.594a1.207,1.207,0,0,1-.238-.024c-.191-.039-20.11-5.877-32.027-30.815a1.2,1.2,0,0,1,2.161-1.033c10.212,21.371,27.382,28.9,30.34,29.5a1.2,1.2,0,0,1-.236,2.372Z" transform="translate(0 -247.107)"/>
        <g>
          <path class="cls-6" d="M1407.926,829.583a1.21,1.21,0,0,1-.2-.016,1.2,1.2,0,0,1-.984-1.378l2.834-16.968a1.2,1.2,0,0,1,2.363.394l-2.834,16.968A1.2,1.2,0,0,1,1407.926,829.583Z" transform="translate(0 -247.107)"/>
          <path class="cls-6" d="M1421.147,831.792a1.216,1.216,0,0,1-.2-.016,1.2,1.2,0,0,1-.984-1.378l2.834-16.968a1.2,1.2,0,0,1,2.362.394l-2.834,16.968A1.2,1.2,0,0,1,1421.147,831.792Z" transform="translate(0 -247.107)"/>
        </g>
      </g>
      <path class="cls-3" d="M1547.105,775.438H1397.494a9.871,9.871,0,0,1-7.51-3.466l-37.264-43.692a9.871,9.871,0,0,0-7.51-3.466H1236.824a9.871,9.871,0,0,0-9.871,9.871V946.329a9.871,9.871,0,0,0,9.871,9.871h300.411a9.871,9.871,0,0,0,9.871-9.871Z" transform="translate(0 -247.107)"/>
      <path class="cls-7" d="M1553.093,781.426H1403.482a9.871,9.871,0,0,1-7.51-3.466l-37.264-43.692a9.871,9.871,0,0,0-7.51-3.466H1242.812a9.871,9.871,0,0,0-9.871,9.871V952.317a9.871,9.871,0,0,0,9.871,9.871h300.411a9.871,9.871,0,0,0,9.871-9.871Z" transform="translate(0 -247.107)"/>
      <path class="cls-6" d="M1537.234,957.4h-300.41a11.081,11.081,0,0,1-11.068-11.068V734.686a11.081,11.081,0,0,1,11.068-11.068H1345.21a11.052,11.052,0,0,1,8.422,3.886l37.263,43.692a8.661,8.661,0,0,0,6.6,3.045H1547.1a1.2,1.2,0,0,1,1.2,1.2V946.33A11.081,11.081,0,0,1,1537.234,957.4Zm-300.41-231.385a8.683,8.683,0,0,0-8.673,8.673V946.33a8.683,8.683,0,0,0,8.673,8.673h300.41a8.683,8.683,0,0,0,8.673-8.673V776.636H1397.494a11.052,11.052,0,0,1-8.422-3.886l-37.264-43.692a8.66,8.66,0,0,0-6.6-3.045Z" transform="translate(0 -247.107)"/>
      <path class="cls-6" d="M1530.977,912.6a1.2,1.2,0,0,1-1.2-1.2v-5.888a1.2,1.2,0,1,1,2.4,0V911.4A1.2,1.2,0,0,1,1530.977,912.6Z" transform="translate(0 -247.107)"/>
      <path class="cls-6" d="M1530.977,921.882a1.2,1.2,0,0,1-1.2-1.2v-3.593a1.2,1.2,0,1,1,2.4,0v3.593A1.2,1.2,0,0,1,1530.977,921.882Z" transform="translate(0 -247.107)"/>
      <path class="cls-6" d="M1522.1,945.741h-8.343a1.2,1.2,0,0,1,0-2.4h8.343a7.688,7.688,0,0,0,7.679-7.679v-9.594a1.2,1.2,0,1,1,2.4,0v9.594A10.085,10.085,0,0,1,1522.1,945.741Z" transform="translate(0 -247.107)"/>
      <path class="cls-6" d="M1505.773,945.741h-8.932a1.2,1.2,0,0,1,0-2.4h8.932a1.2,1.2,0,0,1,0,2.4Z" transform="translate(0 -247.107)"/>
      <g>
        <path class="cls-6" d="M1303.059,804.828c21.23,0,33.619,11.432,34.136,11.918a1.2,1.2,0,1,1-1.641,1.744c-.119-.112-12.257-11.267-32.495-11.267a49.088,49.088,0,0,0-32.668,12.323,1.2,1.2,0,0,1-1.7-1.684A50.579,50.579,0,0,1,1303.059,804.828Z" transform="translate(0 -247.107)"/>
        <circle class="cls-6" cx="1259.416" cy="543.977" r="4.909"/>
        <circle class="cls-6" cx="1345.172" cy="543.977" r="4.909"/>
      </g>
    </g>
    <g>
      <path class="cls-8" d="M583.9,254.6c23.642,0,42.845,19.2,42.845,44.084s-18.377,44.188-42.845,44.188c-25.191,0-42.948-19.306-42.948-44.187S560.464,254.6,583.9,254.6Zm0,69.481c15.485,0,21.887-12.7,21.887-25.4s-6.814-25.4-21.887-25.4c-14.971,0-21.991,12.7-21.991,25.4S568,324.079,583.9,324.079Z" transform="translate(0 -247.107)"/>
      <path class="cls-8" d="M663.4,286.809c17.551,0,31.592,11.563,31.592,28.082,0,16.312-13.318,27.979-31.592,27.979-19.1,0-31.9-11.667-31.9-27.979C631.5,298.372,645.541,286.809,663.4,286.809Zm-.1,40.47c7.123,0,12.285-5.162,12.285-12.389a12.338,12.338,0,1,0-24.674,0C650.91,322.118,655.865,327.279,663.3,327.279Z" transform="translate(0 -247.107)"/>
      <path class="cls-8" d="M738.979,342.869c-7.123,0-13.008-2.375-17.345-6.607v31.9H703.36V288.358h18.067v5.988h.206a23.461,23.461,0,0,1,17.345-7.537c15.486,0,26.326,12.492,26.326,27.979S754.465,342.869,738.979,342.869ZM733.507,302.4c-7.124,0-12.286,5.162-12.286,12.389a12.338,12.338,0,1,0,24.675,0C745.9,307.561,740.94,302.4,733.507,302.4Z" transform="translate(0 -247.107)"/>
      <path class="cls-8" d="M814.145,290.938l-5.988,11.976s-6.194-3.3-11.77-3.3c-4.026,0-5.678.723-5.678,3.2,0,2.788,3.717,3.613,8.259,5.059,7.021,2.168,16.106,6.091,16.106,16.932,0,15.589-14.248,18.067-25.088,18.067a31.688,31.688,0,0,1-20.441-7.124l7.433-12.492s7.228,6.091,13.112,6.091c2.581,0,5.678-.31,5.678-3.82,0-3.82-5.781-4.129-11.77-7.227-5.368-2.787-10.737-6.5-10.737-14.454,0-10.84,9.188-17.035,23.126-17.035A40.436,40.436,0,0,1,814.145,290.938Z" transform="translate(0 -247.107)"/>
      <path class="cls-8" d="M847.8,331.1a11.821,11.821,0,1,1-11.873-11.873A11.787,11.787,0,0,1,847.8,331.1Zm-20.958-78.566h18.273l-2.478,60.912H829.323Z" transform="translate(0 -247.107)"/>
    </g>
    <g>
      <path class="cls-9" d="M780.957,426.4c0,8.755,7.314,11.748,12.3,11.748,6.317,0,9.088-1.219,13.854-6.317l14.186,7.093c-6.429,10.75-16.846,14.851-29.479,14.851-17.178,0-31.253-13.521-31.253-30.034,0-16.624,14.075-30.145,31.253-30.145,17.288,0,30.477,10.2,30.477,30.145a20.39,20.39,0,0,1-.111,2.66Zm22.165-10.861c-.887-5.984-4.987-9.2-10.75-9.2-6.76,0-10.528,3.99-10.86,9.2Z" transform="translate(0 -247.107)"/>
      <path class="cls-9" d="M831.271,395.261h19.616v8.2h.222s6.206-9.864,17.4-9.864a23.549,23.549,0,0,1,12.412,3.547l-8.2,16.624a16.557,16.557,0,0,0-10.2-3.1c-10.2,0-11.637,10.085-11.637,11.525v29.923H831.271Z" transform="translate(0 -247.107)"/>
      <path class="cls-9" d="M886.461,395.261h19.616v8.2h.222s6.206-9.864,17.4-9.864a23.549,23.549,0,0,1,12.412,3.547l-8.2,16.624a16.557,16.557,0,0,0-10.2-3.1c-10.2,0-11.637,10.085-11.637,11.525v29.923H886.461Z" transform="translate(0 -247.107)"/>
      <path class="cls-9" d="M971.131,393.6c18.84,0,33.912,12.413,33.912,30.145,0,17.51-14.3,30.034-33.912,30.034-20.5,0-34.245-12.523-34.245-30.034C936.886,406.011,951.958,393.6,971.131,393.6Zm-.111,43.443c7.647,0,13.188-5.541,13.188-13.3a13.245,13.245,0,1,0-26.487,0C957.721,431.5,963.04,437.042,971.02,437.042Z" transform="translate(0 -247.107)"/>
      <path class="cls-9" d="M1014.02,395.261h19.616v8.2h.222s6.206-9.864,17.4-9.864a23.549,23.549,0,0,1,12.412,3.547l-8.2,16.624a16.557,16.557,0,0,0-10.2-3.1c-10.2,0-11.637,10.085-11.637,11.525v29.923H1014.02Z" transform="translate(0 -247.107)"/>
      <path class="cls-9" d="M1165.183,414.545v18.286h-10.639v19.284h-19.5V432.831h-45v-6.206l43.887-65.94h20.613v53.861ZM1134.817,388.5l-16.292,26.044h16.514V388.5Z" transform="translate(0 -247.107)"/>
      <path class="cls-9" d="M1206.963,359.021c19.616,0,37.127,15.737,37.127,47.433,0,33.912-17.511,47.322-37.127,47.322s-37.236-13.41-37.236-47.322C1169.727,374.759,1187.348,359.021,1206.963,359.021Zm0,76.469c9.975,0,16.07-9.31,16.07-29.036,0-18.508-6.1-29.147-16.07-29.147-10.085,0-16.18,10.75-16.18,29.147C1190.783,426.181,1196.878,435.491,1206.963,435.491Z" transform="translate(0 -247.107)"/>
      <path class="cls-9" d="M1319.56,414.545v18.286h-10.639v19.284h-19.5V432.831h-45v-6.206l43.887-65.94h20.613v53.861ZM1289.194,388.5,1272.9,414.545h16.514V388.5Z" transform="translate(0 -247.107)"/>
    </g>
    <g>
      <path class="cls-9" d="M453.914,859.539h12.5V866.8H445.641V830.5h8.273Z" transform="translate(0 -247.107)"/>
      <path class="cls-9" d="M482.47,843.564c7.48,0,13.466,4.93,13.466,11.971,0,6.953-5.677,11.926-13.466,11.926-8.142,0-13.6-4.973-13.6-11.926C468.871,848.494,474.856,843.564,482.47,843.564Zm-.044,17.251a5.073,5.073,0,0,0,5.236-5.28,5.259,5.259,0,1,0-10.518,0A5.036,5.036,0,0,0,482.426,860.815Z" transform="translate(0 -247.107)"/>
      <path class="cls-9" d="M528.978,845.325l-2.552,5.1a12.715,12.715,0,0,0-5.017-1.408c-1.717,0-2.421.309-2.421,1.364,0,1.188,1.584,1.54,3.521,2.156,2.993.925,6.865,2.6,6.865,7.218,0,6.645-6.073,7.7-10.693,7.7a13.508,13.508,0,0,1-8.714-3.037l3.169-5.324s3.08,2.6,5.589,2.6c1.1,0,2.42-.132,2.42-1.628,0-1.628-2.464-1.761-5.017-3.081-2.288-1.187-4.576-2.771-4.576-6.16,0-4.621,3.916-7.262,9.857-7.262A17.228,17.228,0,0,1,528.978,845.325Z" transform="translate(0 -247.107)"/>
      <path class="cls-9" d="M539.712,856.591a4.614,4.614,0,0,0,4.885,4.665c2.508,0,3.608-.484,5.5-2.509l5.633,2.816c-2.553,4.269-6.689,5.9-11.706,5.9a11.957,11.957,0,1,1,0-23.9c6.865,0,12.1,4.049,12.1,11.971a8.145,8.145,0,0,1-.044,1.056Zm8.8-4.312a4.008,4.008,0,0,0-4.269-3.653c-2.684,0-4.181,1.585-4.312,3.653Z" transform="translate(0 -247.107)"/>
      <path class="cls-9" d="M559.688,844.225h7.789V846.6h.088a9.35,9.35,0,0,1,6.469-3.037c4.137,0,9.9,2.068,9.9,8.361V866.8h-7.789V854.039a4.173,4.173,0,0,0-4.049-4.4,4.8,4.8,0,0,0-4.62,4.4V866.8h-7.789Z" transform="translate(0 -247.107)"/>
      <path class="cls-9" d="M589.828,835.82h7.789v8.4h4.752v5.941h-4.752v7.173c0,2.112.527,3.124,1.76,3.124a3.684,3.684,0,0,0,1.937-.7l1.937,6.293a12.892,12.892,0,0,1-5.721,1.408c-6.205,0-7.7-4.621-7.7-8.626v-8.669h-3.257v-5.941h3.257Z" transform="translate(0 -247.107)"/>
      <path class="cls-9" d="M614.513,834.9a4.621,4.621,0,1,1-4.621-4.62A4.62,4.62,0,0,1,614.513,834.9ZM605.888,866.8h7.789V844.225h-7.789Z" transform="translate(0 -247.107)"/>
      <path class="cls-9" d="M619.175,844.225h7.789V846.6h.088a9.35,9.35,0,0,1,6.469-3.037c2.992,0,6.293,1.1,7.877,4.137,2.377-2.859,5.017-4.137,7.481-4.137,4.137,0,8.8,2.068,8.8,8.361V866.8h-7.789V854.039c0-2.245-1.187-4.225-3.96-4.225a3.463,3.463,0,0,0-3.608,3.52V866.8h-7.789V854.039c0-2.245-1.188-4.225-3.961-4.225a3.493,3.493,0,0,0-3.608,3.784v13.2h-7.789Z" transform="translate(0 -247.107)"/>
      <path class="cls-9" d="M674.483,843.564c7.48,0,13.466,4.93,13.466,11.971,0,6.953-5.677,11.926-13.466,11.926-8.142,0-13.6-4.973-13.6-11.926C660.885,848.494,666.87,843.564,674.483,843.564Zm-.044,17.251a5.073,5.073,0,0,0,5.236-5.28,5.259,5.259,0,1,0-10.518,0A5.036,5.036,0,0,0,674.439,860.815Z" transform="translate(0 -247.107)"/>
      <path class="cls-9" d="M708.8,845.325l-2.552,5.1a12.715,12.715,0,0,0-5.017-1.408c-1.717,0-2.421.309-2.421,1.364,0,1.188,1.584,1.54,3.521,2.156,2.993.925,6.865,2.6,6.865,7.218,0,6.645-6.073,7.7-10.693,7.7a13.508,13.508,0,0,1-8.714-3.037l3.169-5.324s3.08,2.6,5.589,2.6c1.1,0,2.42-.132,2.42-1.628,0-1.628-2.464-1.761-5.017-3.081-2.288-1.187-4.576-2.771-4.576-6.16,0-4.621,3.916-7.262,9.857-7.262A17.228,17.228,0,0,1,708.8,845.325Z" transform="translate(0 -247.107)"/>
      <path class="cls-9" d="M723.146,862.443c0,5.325-3.784,9.638-7.393,12.63l-2.245-1.849a12.755,12.755,0,0,0,3.345-6.16,4.757,4.757,0,0,1-3.784-4.621,5.039,5.039,0,1,1,10.077,0Z" transform="translate(0 -247.107)"/>
      <path class="cls-9" d="M740.438,828.955h7.789V866.8h-7.789Z" transform="translate(0 -247.107)"/>
      <path class="cls-9" d="M763.1,843.564a10.273,10.273,0,0,1,7.394,2.816v-2.156h7.789V866.8h-7.7v-2.553h-.088a10,10,0,0,1-7.394,3.213c-6.6,0-11.222-5.325-11.222-11.926S756.5,843.564,763.1,843.564Zm2.333,17.251a5.073,5.073,0,0,0,5.236-5.28,5.259,5.259,0,1,0-10.518,0A5.036,5.036,0,0,0,765.432,860.815Z" transform="translate(0 -247.107)"/>
      <path class="cls-9" d="M810.751,867.461a10.27,10.27,0,0,1-7.393-2.816v13.6h-7.789V844.225h7.7v2.553h.088a10,10,0,0,1,7.393-3.213c6.6,0,11.222,5.325,11.222,11.926S817.353,867.461,810.751,867.461Zm-2.332-17.251a5.073,5.073,0,0,0-5.236,5.28,5.259,5.259,0,1,0,10.517,0A5.035,5.035,0,0,0,808.419,850.21Z" transform="translate(0 -247.107)"/>
      <path class="cls-9" d="M823.992,855.535c0-6.6,4.621-11.971,11.222-11.971a10.273,10.273,0,0,1,7.394,2.816v-2.156H850.4V866.8h-7.7v-2.553h-.088a10,10,0,0,1-7.394,3.213C828.613,867.461,823.992,862.136,823.992,855.535Zm8.273,0a5.259,5.259,0,1,0,10.518,0,5.259,5.259,0,1,0-10.518,0Zm3.169-17.955,2.464,3.389,10.474-6.073-4-5.061Z" transform="translate(0 -247.107)"/>
      <path class="cls-9" d="M861.041,869.221c.837,1.364,2.729,2.9,6.117,2.9,2.156,0,5.5-1.276,5.5-5.281v-1.672c-1.673,1.849-4.312,2.289-7.394,2.289-6.6,0-11.222-5.325-11.222-11.926s4.621-11.971,11.222-11.971a10.311,10.311,0,0,1,7.262,2.686h.132v-2.025h7.789v23.191c0,7.569-5.589,11.486-13.29,11.486-4.709,0-10.121-1.057-12.5-6.557Zm6.558-8.405a5.073,5.073,0,0,0,5.236-5.28,5.259,5.259,0,1,0-10.518,0A5.036,5.036,0,0,0,867.6,860.815Z" transform="translate(0 -247.107)"/>
      <path class="cls-9" d="M894.35,834.9a4.621,4.621,0,1,1-4.621-4.62A4.62,4.62,0,0,1,894.35,834.9ZM885.725,866.8h7.789V844.225h-7.789Z" transform="translate(0 -247.107)"/>
      <path class="cls-9" d="M899.012,844.225H906.8V846.6h.088a9.35,9.35,0,0,1,6.469-3.037c4.137,0,9.9,2.068,9.9,8.361V866.8H915.47V854.039a4.173,4.173,0,0,0-4.049-4.4,4.8,4.8,0,0,0-4.62,4.4V866.8h-7.789Z" transform="translate(0 -247.107)"/>
      <path class="cls-9" d="M937.688,843.564a10.273,10.273,0,0,1,7.394,2.816v-2.156h7.789V866.8h-7.7v-2.553h-.088a10,10,0,0,1-7.394,3.213c-6.6,0-11.222-5.325-11.222-11.926S931.088,843.564,937.688,843.564Zm2.333,17.251a5.073,5.073,0,0,0,5.236-5.28,5.259,5.259,0,1,0-10.518,0A5.036,5.036,0,0,0,940.021,860.815Z" transform="translate(0 -247.107)"/>
      <path class="cls-9" d="M970.159,844.225h7.789V846.6h.088a9.35,9.35,0,0,1,6.469-3.037c4.137,0,9.9,2.068,9.9,8.361V866.8h-7.789V854.039a4.173,4.173,0,0,0-4.049-4.4,4.8,4.8,0,0,0-4.62,4.4V866.8h-7.789Z" transform="translate(0 -247.107)"/>
      <path class="cls-9" d="M1011.213,843.564c7.48,0,13.466,4.93,13.466,11.971,0,6.953-5.677,11.926-13.466,11.926-8.142,0-13.6-4.973-13.6-11.926C997.614,848.494,1003.6,843.564,1011.213,843.564Zm-.044,17.251a5.073,5.073,0,0,0,5.236-5.28,5.259,5.259,0,1,0-10.518,0A5.036,5.036,0,0,0,1011.169,860.815Z" transform="translate(0 -247.107)"/>
      <path class="cls-9" d="M1041.659,839.428c.044-6.6,3.212-11.133,8.845-11.133a10.778,10.778,0,0,1,6.425,2.023l-2.729,5.5a5.148,5.148,0,0,0-2.332-.617c-1.98,0-2.42,1.32-2.42,4.445v4.576h5.192v5.941h-5.192V866.8h-7.789V850.166H1038.4v-5.941h3.257Z" transform="translate(0 -247.107)"/>
      <path class="cls-9" d="M1064.188,854.963c0,4.444,1.188,6.16,4.445,6.16s4.444-1.716,4.444-6.16V844.225h7.789v12.631c0,7.568-3.784,10.605-12.233,10.605s-12.234-3.037-12.234-10.605V844.225h7.789Z" transform="translate(0 -247.107)"/>
      <path class="cls-9" d="M1092.171,856.591a4.614,4.614,0,0,0,4.885,4.665c2.508,0,3.608-.484,5.5-2.509l5.633,2.816c-2.553,4.269-6.689,5.9-11.706,5.9a11.957,11.957,0,1,1,0-23.9c6.865,0,12.1,4.049,12.1,11.971a8.145,8.145,0,0,1-.044,1.056Zm8.8-4.312a4.008,4.008,0,0,0-4.269-3.653c-2.684,0-4.181,1.585-4.312,3.653Z" transform="translate(0 -247.107)"/>
      <path class="cls-9" d="M452.109,924.888a4.614,4.614,0,0,0,4.885,4.665c2.508,0,3.608-.484,5.5-2.509l5.633,2.816c-2.553,4.269-6.689,5.9-11.706,5.9a11.957,11.957,0,1,1,0-23.9c6.865,0,12.1,4.049,12.1,11.971a8.145,8.145,0,0,1-.044,1.056Zm8.8-4.312a4.008,4.008,0,0,0-4.269-3.653c-2.684,0-4.181,1.585-4.312,3.653Z" transform="translate(0 -247.107)"/>
      <path class="cls-9" d="M472.085,912.521h7.789V914.9h.088a9.35,9.35,0,0,1,6.469-3.037c4.137,0,9.9,2.068,9.9,8.361V935.1h-7.789V922.336a4.173,4.173,0,0,0-4.049-4.4,4.8,4.8,0,0,0-4.62,4.4V935.1h-7.789Z" transform="translate(0 -247.107)"/>
      <path class="cls-9" d="M507.813,923.787a5.47,5.47,0,0,0,5.369,5.59,6.865,6.865,0,0,0,3.784-1.057l2.641,5.412s-2.553,2.025-7.569,2.025c-6.513,0-12.5-5.281-12.5-11.883,0-6.645,5.941-12.014,12.5-12.014,5.017,0,7.569,2.113,7.569,2.113l-2.641,5.324a6.865,6.865,0,0,0-3.784-1.057A5.459,5.459,0,0,0,507.813,923.787Z" transform="translate(0 -247.107)"/>
      <path class="cls-9" d="M534.742,911.861c7.48,0,13.466,4.93,13.466,11.971,0,6.953-5.677,11.926-13.466,11.926-8.142,0-13.6-4.973-13.6-11.926C521.144,916.791,527.129,911.861,534.742,911.861Zm-.044,17.251a5.073,5.073,0,0,0,5.236-5.28,5.259,5.259,0,1,0-10.518,0A5.036,5.036,0,0,0,534.7,929.112Z" transform="translate(0 -247.107)"/>
      <path class="cls-9" d="M551.769,912.521h7.789V914.9h.088a9.35,9.35,0,0,1,6.469-3.037c4.137,0,9.9,2.068,9.9,8.361V935.1h-7.789V922.336a4.173,4.173,0,0,0-4.049-4.4,4.8,4.8,0,0,0-4.62,4.4V935.1h-7.789Z" transform="translate(0 -247.107)"/>
      <path class="cls-9" d="M581.909,904.117H589.7v8.4h4.752v5.941H589.7v7.173c0,2.112.527,3.124,1.76,3.124a3.684,3.684,0,0,0,1.937-.7l1.937,6.293a12.892,12.892,0,0,1-5.721,1.408c-6.205,0-7.7-4.621-7.7-8.626v-8.669h-3.257v-5.941h3.257Z" transform="translate(0 -247.107)"/>
      <path class="cls-9" d="M597.969,912.521h7.789v3.257h.088s2.464-3.917,6.909-3.917a9.353,9.353,0,0,1,4.929,1.408l-3.257,6.6a6.574,6.574,0,0,0-4.049-1.232c-4.048,0-4.62,4-4.62,4.576V935.1h-7.789Z" transform="translate(0 -247.107)"/>
      <path class="cls-9" d="M629.12,911.861a10.273,10.273,0,0,1,7.394,2.816v-2.156H644.3V935.1h-7.7v-2.553h-.088a10,10,0,0,1-7.394,3.213c-6.6,0-11.222-5.325-11.222-11.926S622.52,911.861,629.12,911.861Zm2.333,17.251a5.073,5.073,0,0,0,5.236-5.28,5.259,5.259,0,1,0-10.518,0A5.036,5.036,0,0,0,631.453,929.112Z" transform="translate(0 -247.107)"/>
      <path class="cls-9" d="M659.172,911.861a10.273,10.273,0,0,1,7.394,2.816V897.252h7.789V935.1h-7.7v-2.553h-.088a10,10,0,0,1-7.394,3.213c-6.6,0-11.222-5.325-11.222-11.926S652.571,911.861,659.172,911.861Zm2.333,17.251a5.073,5.073,0,0,0,5.236-5.28,5.259,5.259,0,1,0-10.518,0A5.036,5.036,0,0,0,661.5,929.112Z" transform="translate(0 -247.107)"/>
      <path class="cls-9" d="M689.224,911.861a10.273,10.273,0,0,1,7.394,2.816v-2.156h7.789V935.1h-7.7v-2.553h-.088a10,10,0,0,1-7.394,3.213c-6.6,0-11.222-5.325-11.222-11.926S682.623,911.861,689.224,911.861Zm2.333,17.251a5.073,5.073,0,0,0,5.236-5.28,5.259,5.259,0,1,0-10.518,0A5.036,5.036,0,0,0,691.557,929.112Z" transform="translate(0 -247.107)"/>
      <path class="cls-9" d="M719.76,930.74a5.039,5.039,0,1,1-5.061-5.061A5.025,5.025,0,0,1,719.76,930.74Z" transform="translate(0 -247.107)"/>
    </g>
    <g>
      <g>
        <path class="cls-9" d="M1468.981,908.088l-1.21,2.4a5.984,5.984,0,0,0-2.359-.672c-.808,0-1.139.141-1.141.638,0,.559.743.728,1.653,1.021,1.407.44,3.227,1.234,3.219,3.409-.012,3.128-2.872,3.614-5.047,3.606a6.356,6.356,0,0,1-4.1-1.444l1.5-2.5a5.315,5.315,0,0,0,2.626,1.232c.518,0,1.14-.058,1.142-.762,0-.766-1.157-.833-2.356-1.459-1.075-.563-2.15-1.313-2.144-2.908.008-2.174,1.856-3.41,4.652-3.4A8.112,8.112,0,0,1,1468.981,908.088Z" transform="translate(0 -247.107)"/>
        <path class="cls-9" d="M1476.627,907.288c3.521.013,6.329,2.344,6.317,5.657-.012,3.273-2.693,5.6-6.359,5.589-3.832-.014-6.392-2.364-6.379-5.637C1470.218,909.584,1473.044,907.274,1476.627,907.288Zm-.051,8.119a2.388,2.388,0,0,0,2.474-2.476,2.475,2.475,0,1,0-4.95-.019A2.371,2.371,0,0,0,1476.576,915.407Z" transform="translate(0 -247.107)"/>
        <path class="cls-9" d="M1484.642,907.629l3.666.014,0,1.118h.041a4.4,4.4,0,0,1,3.05-1.418c1.947.007,4.657.991,4.646,3.953l-.026,7-3.666-.014.023-6.007a1.964,1.964,0,0,0-1.9-2.078,2.26,2.26,0,0,0-2.183,2.063l-.023,6.007-3.666-.014Z" transform="translate(0 -247.107)"/>
        <path class="cls-9" d="M1501.356,913.511a2.172,2.172,0,0,0,2.291,2.2,2.916,2.916,0,0,0,2.593-1.171l2.646,1.336a5.91,5.91,0,0,1-5.52,2.755,5.627,5.627,0,1,1,.042-11.247c3.231.012,5.689,1.927,5.675,5.655a3.814,3.814,0,0,1-.022.5Zm4.15-2.014a1.887,1.887,0,0,0-2-1.727,1.83,1.83,0,0,0-2.036,1.711Z" transform="translate(0 -247.107)"/>
      </g>
      <rect class="cls-9" x="1496.446" y="621.765" width="1.865" height="26.116" rx="0.933" ry="0.933"/>
      <rect class="cls-9" x="1492.982" y="627.628" width="1.865" height="14.39" rx="0.933" ry="0.933"/>
      <rect class="cls-9" x="1489.251" y="630.826" width="1.865" height="7.728" rx="0.933" ry="0.933"/>
      <rect class="cls-9" x="1486.053" y="627.628" width="1.865" height="14.39" rx="0.933" ry="0.933"/>
      <rect class="cls-9" x="1482.323" y="631.092" width="1.865" height="7.462" rx="0.933" ry="0.933"/>
      <rect class="cls-9" x="1478.592" y="627.628" width="1.865" height="14.39" rx="0.933" ry="0.933"/>
      <rect class="cls-9" x="1474.861" y="631.092" width="1.865" height="7.995" rx="0.933" ry="0.933"/>
      <rect class="cls-9" x="1471.93" y="632.158" width="1.865" height="5.33" rx="0.933" ry="0.933"/>
      <rect class="cls-9" x="1500.177" y="627.628" width="1.865" height="14.124" rx="0.933" ry="0.933"/>
      <rect class="cls-9" x="1503.375" y="632.158" width="1.865" height="5.063" rx="0.933" ry="0.933"/>
      <g class="cls-10">
        <path class="cls-9" d="M1482.691,864.1l-11.651,11.336a.882.882,0,0,1-.615.25h-6.009a.882.882,0,0,0-.882.882V887.6a.882.882,0,0,0,.882.882h6.014a.882.882,0,0,1,.611.246l11.653,11.214a.882.882,0,0,0,1.493-.635V864.727A.882.882,0,0,0,1482.691,864.1Zm.173,32.1a.921.921,0,0,1-.009.113v2.146l-11.725-11.459H1465v-9.86h6.129l11.725-11.459v2.082a.925.925,0,0,1,.009.113Z" transform="translate(0 -247.107)"/>
      </g>
      <g>
        <path class="cls-9" d="M1463.756,926.014a3.181,3.181,0,0,1-1.2.213,1.99,1.99,0,0,1-1.543-.638,2.054,2.054,0,0,1-.547-1.451,2.016,2.016,0,0,1,.577-1.5,2.065,2.065,0,0,1,1.518-.571,4.067,4.067,0,0,1,1.19.213v.935h-.358l-.091-.541a.175.175,0,0,0-.1-.14,1.4,1.4,0,0,0-.613-.133,1.3,1.3,0,0,0-1.02.431,1.849,1.849,0,0,0-.413,1.287,1.959,1.959,0,0,0,.4,1.306,1.377,1.377,0,0,0,1.111.474,1.266,1.266,0,0,0,.486-.079.164.164,0,0,0,.109-.121l.14-.65h.346Z" transform="translate(0 -247.107)"/>
        <path class="cls-9" d="M1467.338,926.154h-.959v-.346a1.638,1.638,0,0,1-.978.395q-.838,0-.838-.96V923.6h-.425v-.206l.747-.231h.249v1.967q0,.662.583.662a1.461,1.461,0,0,0,.662-.158V923.6h-.425v-.206l.741-.231h.243v2.6a.121.121,0,0,0,.133.134l.267.018Z" transform="translate(0 -247.107)"/>
        <path class="cls-9" d="M1469.719,925.269a.831.831,0,0,1-.307.688,1.331,1.331,0,0,1-.853.245,2.3,2.3,0,0,1-.844-.133v-.808h.31l.073.517a.967.967,0,0,0,.541.15.566.566,0,0,0,.4-.136.426.426,0,0,0,.149-.324.449.449,0,0,0-.194-.376,4.161,4.161,0,0,0-.547-.291,1.778,1.778,0,0,1-.51-.327.611.611,0,0,1-.176-.442.787.787,0,0,1,.288-.642,1.236,1.236,0,0,1,.8-.236,1.894,1.894,0,0,1,.777.14v.717h-.314l-.048-.431a.717.717,0,0,0-.459-.14q-.49,0-.49.406a.4.4,0,0,0,.139.321,2.463,2.463,0,0,0,.532.3Q1469.719,924.8,1469.719,925.269Z" transform="translate(0 -247.107)"/>
        <path class="cls-9" d="M1471.977,926.026a2.506,2.506,0,0,1-.826.146.735.735,0,0,1-.5-.137.648.648,0,0,1-.149-.489V923.61h-.389v-.2l.41-.194.272-.583h.266v.674h.862v.3h-.862v1.615a.732.732,0,0,0,.116.477.476.476,0,0,0,.373.131,1.868,1.868,0,0,0,.428-.049Z" transform="translate(0 -247.107)"/>
        <path class="cls-9" d="M1475.129,924.69a1.53,1.53,0,0,1-.4,1.084,1.37,1.37,0,0,1-1.054.428,1.355,1.355,0,0,1-1.05-.431,1.513,1.513,0,0,1-.389-1.081,1.564,1.564,0,0,1,.395-1.1,1.362,1.362,0,0,1,1.057-.431,1.339,1.339,0,0,1,1.05.434A1.582,1.582,0,0,1,1475.129,924.69Zm-.631-.006a1.727,1.727,0,0,0-.2-.875.687.687,0,0,0-.613-.376.67.67,0,0,0-.613.376,1.749,1.749,0,0,0-.194.875,1.692,1.692,0,0,0,.2.868.674.674,0,0,0,.607.376.691.691,0,0,0,.619-.376A1.713,1.713,0,0,0,1474.5,924.684Z" transform="translate(0 -247.107)"/>
        <path class="cls-9" d="M1480.424,926.154h-1.366v-.237l.249-.018a.123.123,0,0,0,.127-.134v-1.549q0-.619-.543-.619a1.418,1.418,0,0,0-.647.176v1.992a.123.123,0,0,0,.13.134l.259.018v.237h-1.33v-.237l.255-.018a.123.123,0,0,0,.127-.134v-1.579q0-.589-.537-.589a1.307,1.307,0,0,0-.653.176v1.992a.123.123,0,0,0,.129.134l.259.018v.237h-1.372v-.237l.3-.018a.119.119,0,0,0,.127-.134v-2.143h-.419v-.2l.73-.231h.247v.34a2.127,2.127,0,0,1,.991-.37.705.705,0,0,1,.669.413,2.212,2.212,0,0,1,1.052-.413.72.72,0,0,1,.639.3,1.115,1.115,0,0,1,.158.619v1.682a.119.119,0,0,0,.127.134l.291.018Z" transform="translate(0 -247.107)"/>
        <path class="cls-9" d="M1483.32,925.85a2.155,2.155,0,0,1-1.154.352,1.372,1.372,0,0,1-.978-.358,1.457,1.457,0,0,1-.431-1.123,1.591,1.591,0,0,1,.4-1.133,1.343,1.343,0,0,1,1.026-.428,1.071,1.071,0,0,1,.85.346,1.327,1.327,0,0,1,.285.893c0,.077,0,.133-.006.17h-1.968a1.561,1.561,0,0,0,.213.862.89.89,0,0,0,.8.4,1.776,1.776,0,0,0,.959-.352Zm-.607-1.555v-.134a.83.83,0,0,0-.149-.513.517.517,0,0,0-.44-.2.667.667,0,0,0-.513.231.974.974,0,0,0-.234.613Z" transform="translate(0 -247.107)"/>
        <path class="cls-9" d="M1485.883,923.846h-.238a.423.423,0,0,0-.33-.164.887.887,0,0,0-.61.376v1.706a.119.119,0,0,0,.129.134l.406.018v.237h-1.518v-.237l.3-.024a.123.123,0,0,0,.127-.133v-2.138h-.437v-.2l.748-.231h.247v.577q.262-.291.36-.376a.746.746,0,0,1,.446-.231.78.78,0,0,1,.372.085Z" transform="translate(0 -247.107)"/>
        <path class="cls-9" d="M1491.257,926.014a3.181,3.181,0,0,1-1.2.213,1.99,1.99,0,0,1-1.542-.638,2.053,2.053,0,0,1-.547-1.451,2.016,2.016,0,0,1,.577-1.5,2.065,2.065,0,0,1,1.518-.571,4.066,4.066,0,0,1,1.19.213v.935h-.358l-.091-.541a.176.176,0,0,0-.1-.14,1.4,1.4,0,0,0-.613-.133,1.3,1.3,0,0,0-1.02.431,1.85,1.85,0,0,0-.413,1.287,1.959,1.959,0,0,0,.4,1.306,1.377,1.377,0,0,0,1.111.474,1.268,1.268,0,0,0,.486-.079.165.165,0,0,0,.109-.121l.139-.65h.346Z" transform="translate(0 -247.107)"/>
        <path class="cls-9" d="M1494.627,924.69a1.529,1.529,0,0,1-.4,1.084,1.37,1.37,0,0,1-1.053.428,1.355,1.355,0,0,1-1.051-.431,1.513,1.513,0,0,1-.389-1.081,1.564,1.564,0,0,1,.395-1.1,1.363,1.363,0,0,1,1.057-.431,1.339,1.339,0,0,1,1.05.434A1.582,1.582,0,0,1,1494.627,924.69Zm-.631-.006a1.725,1.725,0,0,0-.2-.875.687.687,0,0,0-.613-.376.67.67,0,0,0-.613.376,1.747,1.747,0,0,0-.195.875,1.692,1.692,0,0,0,.2.868.674.674,0,0,0,.607.376.691.691,0,0,0,.619-.376A1.713,1.713,0,0,0,1494,924.684Z" transform="translate(0 -247.107)"/>
        <path class="cls-9" d="M1499.922,926.154h-1.366v-.237l.249-.018a.123.123,0,0,0,.127-.134v-1.549q0-.619-.543-.619a1.418,1.418,0,0,0-.647.176v1.992a.123.123,0,0,0,.13.134l.259.018v.237h-1.33v-.237l.255-.018a.123.123,0,0,0,.127-.134v-1.579q0-.589-.537-.589a1.308,1.308,0,0,0-.653.176v1.992a.123.123,0,0,0,.13.134l.259.018v.237h-1.372v-.237l.3-.018a.119.119,0,0,0,.127-.134v-2.143h-.419v-.2l.73-.231h.247v.34a2.128,2.128,0,0,1,.992-.37.705.705,0,0,1,.669.413,2.212,2.212,0,0,1,1.052-.413.719.719,0,0,1,.639.3,1.114,1.114,0,0,1,.158.619v1.682a.119.119,0,0,0,.127.134l.292.018Z" transform="translate(0 -247.107)"/>
        <path class="cls-9" d="M1502.393,922a.328.328,0,0,1-.282.328q-.012-.012-.285-.2t-.279-.2q-.344.176-.356.917v.461h.759v.3h-.759v2.156a.12.12,0,0,0,.129.134l.363.018v.237h-1.476v-.237l.3-.018a.119.119,0,0,0,.127-.134V923.61h-.389V923.4l.389-.109a2.125,2.125,0,0,1,.206-.99,1.107,1.107,0,0,1,1.032-.668.616.616,0,0,1,.386.106A.317.317,0,0,1,1502.393,922Z" transform="translate(0 -247.107)"/>
        <path class="cls-9" d="M1505.125,924.69a1.529,1.529,0,0,1-.4,1.084,1.37,1.37,0,0,1-1.053.428,1.355,1.355,0,0,1-1.051-.431,1.513,1.513,0,0,1-.389-1.081,1.564,1.564,0,0,1,.395-1.1,1.363,1.363,0,0,1,1.057-.431,1.339,1.339,0,0,1,1.05.434A1.582,1.582,0,0,1,1505.125,924.69Zm-.631-.006a1.725,1.725,0,0,0-.2-.875.687.687,0,0,0-.613-.376.67.67,0,0,0-.613.376,1.747,1.747,0,0,0-.195.875,1.692,1.692,0,0,0,.2.868.674.674,0,0,0,.607.376.691.691,0,0,0,.619-.376A1.713,1.713,0,0,0,1504.494,924.684Z" transform="translate(0 -247.107)"/>
        <path class="cls-9" d="M1507.682,923.846h-.238a.423.423,0,0,0-.33-.164.887.887,0,0,0-.61.376v1.706a.119.119,0,0,0,.129.134l.406.018v.237h-1.518v-.237l.3-.024a.123.123,0,0,0,.127-.133v-2.138h-.437v-.2l.748-.231h.247v.577q.262-.291.36-.376a.746.746,0,0,1,.446-.231.78.78,0,0,1,.372.085Z" transform="translate(0 -247.107)"/>
        <path class="cls-9" d="M1509.771,926.026a2.507,2.507,0,0,1-.826.146.734.734,0,0,1-.5-.137.648.648,0,0,1-.149-.489V923.61h-.388v-.2l.41-.194.272-.583h.265v.674h.862v.3h-.862v1.615a.732.732,0,0,0,.116.477.475.475,0,0,0,.373.131,1.869,1.869,0,0,0,.428-.049Z" transform="translate(0 -247.107)"/>
      </g>
      <path class="cls-9" d="M1511.474,907.579v-2.945h1.306a1.739,1.739,0,0,1,.6.079.654.654,0,0,1,.327.28.835.835,0,0,1,.123.444.742.742,0,0,1-.2.528,1.028,1.028,0,0,1-.627.273,1.017,1.017,0,0,1,.235.147,2.024,2.024,0,0,1,.323.392l.512.8h-.49l-.39-.613q-.171-.265-.281-.406a.879.879,0,0,0-.2-.2.59.59,0,0,0-.178-.078,1.173,1.173,0,0,0-.217-.014h-.452v1.308Zm.39-1.645h.838a1.254,1.254,0,0,0,.418-.055.445.445,0,0,0,.229-.177.478.478,0,0,0,.079-.264.439.439,0,0,0-.152-.344.71.71,0,0,0-.479-.135h-.932Z" transform="translate(0 -247.107)"/>
      <path class="cls-9" d="M1512.569,908.978a2.931,2.931,0,1,1,2.931-2.931A2.935,2.935,0,0,1,1512.569,908.978Zm0-5.6a2.665,2.665,0,1,0,2.665,2.665A2.668,2.668,0,0,0,1512.569,903.382Z" transform="translate(0 -247.107)"/>
    </g>
    <g>
      <rect class="cls-9" x="966.174" y="28.329" width="4.242" height="59.393" rx="2.121" ry="2.121"/>
      <rect class="cls-9" x="958.295" y="41.662" width="4.242" height="32.727" rx="2.121" ry="2.121"/>
      <rect class="cls-9" x="949.81" y="48.934" width="4.242" height="17.575" rx="2.121" ry="2.121"/>
      <rect class="cls-9" x="942.538" y="41.662" width="4.242" height="32.727" rx="2.121" ry="2.121"/>
      <rect class="cls-9" x="934.053" y="49.54" width="4.242" height="16.969" rx="2.121" ry="2.121"/>
      <rect class="cls-9" x="925.568" y="41.662" width="4.242" height="32.727" rx="2.121" ry="2.121"/>
      <rect class="cls-9" x="917.084" y="49.54" width="4.242" height="18.181" rx="2.121" ry="2.121"/>
      <rect class="cls-9" x="910.417" y="51.965" width="4.242" height="12.121" rx="2.121" ry="2.121"/>
      <rect class="cls-9" x="974.658" y="41.662" width="4.242" height="32.121" rx="2.121" ry="2.121"/>
      <rect class="cls-9" x="981.931" y="51.965" width="4.242" height="11.515" rx="2.121" ry="2.121"/>
      <g class="cls-10">
        <path class="cls-9" d="M934.892,264.572l-26.5,25.781a2.005,2.005,0,0,1-1.4.568H893.332a2.005,2.005,0,0,0-2.005,2.005v25.111a2.005,2.005,0,0,0,2.005,2.005h13.677a2.005,2.005,0,0,1,1.39.56l26.5,25.5a2.005,2.005,0,0,0,3.4-1.445V266.009A2.005,2.005,0,0,0,934.892,264.572Zm.393,73a2.1,2.1,0,0,1-.019.258v4.88L908.6,316.647H894.66V294.223H908.6l26.666-26.06V272.9a2.1,2.1,0,0,1,.019.258Z" transform="translate(0 -247.107)"/>
      </g>
    </g>
    <g>
      <g>
        <rect class="cls-6" x="1424.007" y="644.919" width="1.993" height="14" rx="0.997" ry="0.997" transform="translate(1122.025 -1132.665) rotate(54.269)"/>
        <rect class="cls-6" x="1424.007" y="644.919" width="1.993" height="14" rx="0.997" ry="0.997" transform="translate(2962.481 101.833) rotate(144.269)"/>
      </g>
      <rect class="cls-6" x="1468.007" y="653.919" width="1.993" height="14" rx="0.997" ry="0.997" transform="translate(1147.635 -1164.639) rotate(54.269)"/>
      <rect class="cls-6" x="1468.007" y="653.919" width="1.993" height="14" rx="0.997" ry="0.997" transform="translate(3047.454 92.443) rotate(144.269)"/>
    </g>
  </g>
</svg>
