<?xml version="1.0" encoding="utf-8"?>
<!-- Generator: Adobe Illustrator 21.0.2, SVG Export Plug-In . SVG Version: 6.00 Build 0)  -->
<svg version="1.1" id="Capa_1" xmlns="http://www.w3.org/2000/svg" xmlns:xlink="http://www.w3.org/1999/xlink" x="0px" y="0px"
	 viewBox="0 0 64 64" style="enable-background:new 0 0 64 64;" xml:space="preserve">
<style type="text/css">
	.st0{fill:#B2427C;}
</style>
<g>
	<path class="st0" d="M31.3,16.3c-3,0-5.4,0.9-7.1,2.8c0,0,0,0,0,0c0,0-0.3,0.3-0.5,0.6c0.1-0.1,0.3-0.3,0.5-0.6
		c-1.7,1.9-2.6,4.3-2.6,7.3h3.8c0.1-1.8,0.4-3.2,0.9-4.2c0.9-1.7,2.5-2.6,4.9-2.6c1.9,0,3.3,0.5,4.1,1.5c0.8,1,1.2,2.2,1.2,3.6
		c0,1-0.3,1.9-0.8,2.9c-0.3,0.5-0.7,1-1.2,1.5l-1.7,1.7c-1.6,1.6-2.7,3-3.1,4.2c-0.5,1.2-0.7,2.9-0.7,4.9h3.8c0-1.8,0.2-3.1,0.6-4
		c0.4-0.9,1.3-2,2.6-3.3c1.9-1.8,3.1-3.2,3.7-4.1c0.6-0.9,0.9-2.1,0.9-3.6c0-2.5-0.8-4.5-2.5-6.1C36.3,17.1,34,16.3,31.3,16.3z"/>
	<path class="st0" d="M32,0.2C14.5,0.2,0.2,14.5,0.2,32c0,17.5,14.2,31.8,31.8,31.8c17.5,0,31.8-14.2,31.8-31.8
		C63.8,14.5,49.5,0.2,32,0.2z M32,60.9C16.1,60.9,3.1,47.9,3.1,32S16.1,3.1,32,3.1S60.9,16.1,60.9,32S47.9,60.9,32,60.9z"/>
	<rect x="28.7" y="43.3" class="st0" width="4.2" height="4.4"/>
</g>
</svg>
