<?xml version="1.0" encoding="utf-8"?>
<!-- Generator: Adobe Illustrator 21.0.2, SVG Export Plug-In . SVG Version: 6.00 Build 0)  -->
<svg version="1.1" id="Capa_1" xmlns="http://www.w3.org/2000/svg" xmlns:xlink="http://www.w3.org/1999/xlink" x="0px" y="0px"
	 viewBox="0 0 64 64" style="enable-background:new 0 0 64 64;" xml:space="preserve">
<style type="text/css">
	.st0{fill:#B2427C;}
</style>
<g>
	<path class="st0" d="M32,28.7c7.8,0,14.1-6.3,14.1-14.1S39.8,0.5,32,0.5S17.9,6.8,17.9,14.6S24.2,28.7,32,28.7z M32,3.9
		c5.9,0,10.7,4.8,10.7,10.7S37.9,25.3,32,25.3s-10.7-4.8-10.7-10.7S26.1,3.9,32,3.9z"/>
	<path class="st0" d="M32,35.3c-14.6,0-26.5,11.9-26.5,26.5c0,0.9,0.8,1.7,1.7,1.7s1.7-0.8,1.7-1.7C8.9,49,19.2,38.7,32,38.7
		S55.1,49,55.1,61.8c0,0.9,0.8,1.7,1.7,1.7c0.9,0,1.7-0.8,1.7-1.7C58.5,47.2,46.6,35.3,32,35.3z"/>
</g>
</svg>
