<?xml version="1.0" encoding="utf-8"?>
<!-- Generator: Adobe Illustrator 21.0.2, SVG Export Plug-In . SVG Version: 6.00 Build 0)  -->
<svg version="1.1" id="Capa_1" xmlns="http://www.w3.org/2000/svg" xmlns:xlink="http://www.w3.org/1999/xlink" x="0px" y="0px"
	 viewBox="0 0 64 64" style="enable-background:new 0 0 64 64;" xml:space="preserve">
<style type="text/css">
	.st0{fill:#B2427C;}
</style>
<path class="st0" d="M59.4,4.6c-5.4-5.4-14.2-5.4-19.7,0l-36.1,36c-0.3,0.3-0.5,0.6-0.5,1L0.5,61.4C0.4,62,0.6,62.6,1,63
	c0.3,0.3,0.8,0.5,1.3,0.5c0.1,0,0.2,0,0.2,0l11.9-1.6c1-0.1,1.7-1,1.6-2c-0.1-1-1-1.7-2-1.6l-9.6,1.3l1.9-13.8l14.5,14.5
	c0.3,0.3,0.8,0.5,1.3,0.5s0.9-0.2,1.3-0.5l36.1-36c2.6-2.6,4.1-6.1,4.1-9.8S62.1,7.2,59.4,4.6z M7.5,41.9L40.5,9l6.1,6.1L13.6,48
	L7.5,41.9z M22.1,56.5l-5.9-5.9l32.9-32.9l5.9,5.9L22.1,56.5z M57.5,21L43,6.5c1.8-1.5,4.1-2.3,6.6-2.3c2.8,0,5.3,1.1,7.3,3
	c1.9,1.9,3,4.5,3,7.3C59.9,16.8,59,19.1,57.5,21z"/>
</svg>
