<?xml version="1.0" encoding="utf-8"?>
<!-- Generator: Adobe Illustrator 21.0.2, SVG Export Plug-In . SVG Version: 6.00 Build 0)  -->
<svg version="1.1" id="Capa_1" xmlns="http://www.w3.org/2000/svg" xmlns:xlink="http://www.w3.org/1999/xlink" x="0px" y="0px"
	 viewBox="0 0 64 64" style="enable-background:new 0 0 64 64;" xml:space="preserve">
<style type="text/css">
	.st0{fill:#B2427C;}
</style>
<g>
	<path class="st0" d="M60.4,25h-5.9c-1,0-1.7-0.5-2.1-1.4c-0.4-0.9-0.2-1.8,0.5-2.5l4.2-4.2c0.6-0.6,1-1.4,1-2.3
		c0-0.9-0.3-1.7-1-2.3l-5.3-5.3c-1.2-1.2-3.4-1.2-4.6,0l-4.2,4.2c-0.7,0.7-1.6,0.9-2.5,0.5c-0.9-0.4-1.4-1.2-1.4-2.1V3.6
		c0-1.8-1.5-3.3-3.3-3.3h-7.6c-1.8,0-3.3,1.5-3.3,3.3v5.9c0,1-0.5,1.7-1.4,2.1c-0.9,0.4-1.8,0.2-2.5-0.5l-4.2-4.2
		c-1.2-1.2-3.4-1.2-4.6,0l-5.3,5.3c-0.6,0.6-1,1.4-1,2.3c0,0.9,0.3,1.7,1,2.3l4.2,4.2c0.7,0.7,0.9,1.6,0.5,2.5
		c-0.4,0.9-1.2,1.4-2.1,1.4H3.6c-1.8,0-3.3,1.5-3.3,3.3v7.6c0,1.8,1.5,3.3,3.3,3.3h5.9c1,0,1.7,0.5,2.1,1.4c0.4,0.9,0.2,1.8-0.5,2.5
		l-4.2,4.2c-0.6,0.6-1,1.4-1,2.3c0,0.9,0.3,1.7,1,2.3l5.3,5.3c1.2,1.2,3.4,1.2,4.6,0l4.2-4.2c0.7-0.7,1.6-0.9,2.5-0.5
		c0.9,0.4,1.4,1.2,1.4,2.1v5.9c0,1.8,1.5,3.3,3.3,3.3h7.6c1.8,0,3.3-1.5,3.3-3.3v-5.9c0-1,0.5-1.7,1.4-2.1c0.9-0.4,1.8-0.2,2.5,0.5
		l4.2,4.2c1.2,1.2,3.4,1.2,4.6,0l5.3-5.3c0.6-0.6,1-1.4,1-2.3c0-0.9-0.3-1.7-1-2.3l-4.2-4.2c-0.7-0.7-0.9-1.6-0.5-2.5
		c0.4-0.9,1.2-1.4,2.1-1.4h5.9c1.8,0,3.3-1.5,3.3-3.3v-7.6C63.7,26.4,62.2,25,60.4,25z M61.4,35.8c0,0.5-0.4,0.9-0.9,0.9h-5.9
		c-1.9,0-3.5,1.1-4.3,2.9c-0.7,1.8-0.3,3.7,1,5l4.2,4.2c0.4,0.4,0.4,0.9,0,1.3l-5.3,5.3c-0.4,0.4-0.9,0.4-1.3,0l-4.2-4.2
		c-1.3-1.3-3.3-1.7-5-1c-1.8,0.7-2.9,2.4-2.9,4.3v5.9c0,0.5-0.4,0.9-0.9,0.9h-7.6c-0.5,0-0.9-0.4-0.9-0.9v-5.9
		c0-1.9-1.1-3.5-2.9-4.3c-0.6-0.2-1.2-0.4-1.8-0.4c-1.2,0-2.3,0.5-3.2,1.4l-4.2,4.2c-0.4,0.4-0.9,0.4-1.3,0l-5.3-5.3
		c-0.4-0.4-0.4-0.9,0-1.3l4.2-4.2c1.3-1.3,1.7-3.3,1-5c-0.7-1.8-2.4-2.9-4.3-2.9H3.6c-0.5,0-0.9-0.4-0.9-0.9v-7.6
		c0-0.5,0.4-0.9,0.9-0.9h5.9c1.9,0,3.5-1.1,4.3-2.9c0.7-1.8,0.3-3.7-1-5l-4.2-4.2c-0.4-0.4-0.4-0.9,0-1.3l5.3-5.3
		c0.4-0.4,0.9-0.4,1.3,0l4.2,4.2c1.3,1.3,3.3,1.7,5,1c1.8-0.7,2.9-2.4,2.9-4.3V3.6c0-0.5,0.4-0.9,0.9-0.9h7.6c0.5,0,0.9,0.4,0.9,0.9
		v5.9c0,1.9,1.1,3.5,2.9,4.3c1.8,0.7,3.7,0.3,5-1l4.2-4.2c0.4-0.4,0.9-0.4,1.3,0l5.3,5.3c0.4,0.4,0.4,0.9,0,1.3l-4.2,4.2
		c-1.3,1.3-1.7,3.3-1,5c0.7,1.8,2.4,2.9,4.3,2.9h5.9c0.5,0,0.9,0.4,0.9,0.9V35.8z"/>
	<path class="st0" d="M32,21.4c-5.8,0-10.6,4.7-10.6,10.6S26.2,42.6,32,42.6S42.6,37.8,42.6,32S37.8,21.4,32,21.4z M32,40.2
		c-4.5,0-8.2-3.7-8.2-8.2s3.7-8.2,8.2-8.2s8.2,3.7,8.2,8.2S36.5,40.2,32,40.2z"/>
</g>
</svg>
