<svg xmlns="http://www.w3.org/2000/svg" viewBox="0 0 24.98 22.91"><defs><style>.cls-1{fill:#9a4479;}</style></defs><title>candado2</title><g id="Capa_2" data-name="Capa 2"><g id="Capa_2-2" data-name="Capa 2"><path class="cls-1" d="M21.62,3.36a11.45,11.45,0,0,0-16.3.1.62.62,0,0,0,.88.86,10.22,10.22,0,1,1-2.9,7.13v-.13l1,1a.62.62,0,0,0,.44.18.63.63,0,0,0,.44-.18.62.62,0,0,0,0-.87L3.13,9.4a.62.62,0,0,0-.87,0L.18,11.47a.62.62,0,0,0,.44,1.05.63.63,0,0,0,.44-.18l1-1v.13a11.46,11.46,0,0,0,19.56,8.1,11.46,11.46,0,0,0,0-16.2Z"/><path class="cls-1" d="M13.52,4.8A3.64,3.64,0,0,0,9.89,8.43v1.75H8.76a.62.62,0,0,0-.62.62V17a.62.62,0,0,0,.62.62h9.53a.62.62,0,0,0,.62-.62V10.8a.62.62,0,0,0-.62-.62H17.16V8.43A3.65,3.65,0,0,0,13.52,4.8Zm-2.4,3.64a2.4,2.4,0,0,1,4.8,0v1.75h-4.8V8.43Zm6.55,7.9H9.38V11.42h8.3Z"/></g></g></svg>