<svg id="Capa_1" data-name="Capa 1" xmlns="http://www.w3.org/2000/svg" viewBox="0 0 64 64"><defs><style>.cls-1{fill:#b0427c;}</style></defs><title>iconos sone</title><path class="cls-1" d="M2.77,30.69a19.13,19.13,0,0,0,12.9,18.09c7.13,2.39,15.89.6,20.63-5.5C39.77,39,40.56,33.3,40.18,28c-6.1-.05-12.21,0-18.3,0,0,2.17,0,4.34,0,6.52,3.65.1,7.31.05,11,.13-.92,3.16-3,6.1-6.21,7.25-6.16,2.71-14-.83-16-7.29A12.11,12.11,0,0,1,18.5,19.09c3.92-1.38,8,.17,11.31,2.21,1.7-1.59,3.29-3.29,4.85-5a19.14,19.14,0,0,0-13.74-4.71C11,11.7,2.4,20.82,2.77,30.69Z"/><path class="cls-1" d="M52.06,22.47c0,1.82,0,3.65,0,5.46l-5.46,0v5.45l5.46,0c0,1.82,0,3.64,0,5.46H57.5c0-1.83,0-3.65,0-5.47l5.46,0V28l-5.46,0c0-1.82,0-3.65,0-5.46Z"/><path class="cls-1" d="M2.77,30.69C2.4,20.82,11,11.7,20.92,11.58A19.14,19.14,0,0,1,34.66,16.3c-1.56,1.72-3.15,3.42-4.85,5-3.35-2-7.39-3.59-11.31-2.21a12.11,12.11,0,0,0-7.81,15.45c1.94,6.46,9.8,10,16,7.29,3.19-1.14,5.29-4.08,6.21-7.25-3.65-.07-7.31,0-11-.13,0-2.17,0-4.34,0-6.52,6.09,0,12.2,0,18.3,0,.37,5.33-.41,11-3.87,15.31-4.74,6.1-13.5,7.9-20.63,5.5A19.13,19.13,0,0,1,2.77,30.69Z"/><path class="cls-1" d="M52.06,22.47H57.5c0,1.82,0,3.65,0,5.46L63,28v5.45l-5.46,0c0,1.83,0,3.65,0,5.47H52.05c0-1.83,0-3.65,0-5.46l-5.46,0V28l5.46,0C52,26.11,52,24.28,52.06,22.47Z"/></svg>