<svg xmlns="http://www.w3.org/2000/svg" viewBox="0 0 56.39 35.84"><defs><style>.cls-1{fill:#fff;}</style></defs><title>google b</title><g id="Capa_2" data-name="Capa 2"><g id="Capa_2-2" data-name="Capa 2"><path class="cls-1" d="M0,17.94A17.91,17.91,0,0,0,12.09,34.88c6.67,2.24,14.88.56,19.32-5.15,3.24-4,4-9.34,3.63-14.33-5.71-.05-11.43,0-17.13,0,0,2,0,4.06,0,6.1,3.42.09,6.84.05,10.26.12a9.9,9.9,0,0,1-5.82,6.78A11.32,11.32,0,1,1,14.73,7.09c3.67-1.29,7.45.16,10.59,2.07,1.59-1.49,3.08-3.08,4.54-4.69A17.92,17.92,0,0,0,17,.06C7.75.17-.34,8.7,0,17.94Z"/><path class="cls-1" d="M46.15,10.24c0,1.7,0,3.41,0,5.12l-5.12,0v5.1l5.12,0c0,1.7,0,3.4,0,5.12h5.1c0-1.71,0-3.41,0-5.12l5.12,0v-5.1l-5.12,0c0-1.7,0-3.41,0-5.12Z"/><path class="cls-1" d="M0,17.94C-.34,8.7,7.75.17,17,.06A17.92,17.92,0,0,1,29.87,4.47c-1.46,1.61-3,3.2-4.54,4.69C22.18,7.25,18.4,5.79,14.73,7.09a11.32,11.32,0,1,0,7.62,21.29,9.9,9.9,0,0,0,5.82-6.78c-3.42-.07-6.84,0-10.26-.12,0-2,0-4.06,0-6.1,5.71,0,11.42,0,17.13,0,.35,5-.38,10.33-3.63,14.33C27,35.44,18.76,37.12,12.09,34.88A17.91,17.91,0,0,1,0,17.94Z"/><path class="cls-1" d="M46.15,10.24h5.09c0,1.7,0,3.41,0,5.12l5.12,0v5.1l-5.12,0c0,1.71,0,3.41,0,5.12h-5.1c0-1.71,0-3.41,0-5.12l-5.12,0v-5.1l5.12,0C46.12,13.66,46.14,11.94,46.15,10.24Z"/></g></g></svg>