<?xml version="1.0" encoding="utf-8"?>
<!-- Generator: Adobe Illustrator 21.0.2, SVG Export Plug-In . SVG Version: 6.00 Build 0)  -->
<svg version="1.1" id="Capa_1" xmlns="http://www.w3.org/2000/svg" xmlns:xlink="http://www.w3.org/1999/xlink" x="0px" y="0px"
	 viewBox="0 0 64 64" style="enable-background:new 0 0 64 64;" xml:space="preserve">
<style type="text/css">
	.st0{fill:#B2427C;}
</style>
<g>
	<g>
		<path class="st0" d="M21.2,13.2c0.3,0,0.6-0.1,0.8-0.3l8.9-8.9v38.3c0,0.6,0.5,1.1,1.1,1.1s1.1-0.5,1.1-1.1V3.9l8.9,8.9
			c0.4,0.4,1.1,0.4,1.5,0c0.4-0.4,0.4-1.1,0-1.5L32.8,0.6c-0.1-0.1-0.2-0.2-0.4-0.2c-0.3-0.1-0.6-0.1-0.8,0
			c-0.1,0.1-0.3,0.1-0.4,0.2L20.5,11.3c-0.4,0.4-0.4,1.1,0,1.5C20.7,13.1,20.9,13.2,21.2,13.2z"/>
		<path class="st0" d="M39.5,17.5c-0.6,0-1.1,0.5-1.1,1.1c0,0.6,0.5,1.1,1.1,1.1h14v42H10.5v-42h14c0.6,0,1.1-0.5,1.1-1.1
			c0-0.6-0.5-1.1-1.1-1.1H8.3v46.3h47.4V17.5L39.5,17.5z"/>
	</g>
</g>
</svg>
