<svg id="Capa_1" data-name="Capa 1" xmlns="http://www.w3.org/2000/svg" viewBox="0 0 64 64"><defs><style>.cls-1{fill:#b0427c;}</style></defs><title>iconos sone</title><path class="cls-1" d="M55.45,11.08H8.55A5.56,5.56,0,0,0,3,16.63V47.37a5.56,5.56,0,0,0,5.55,5.55h46.9A5.56,5.56,0,0,0,61,47.37V16.63A5.56,5.56,0,0,0,55.45,11.08Zm-22,22.11a2.35,2.35,0,0,1-2.88,0L9.68,15H54.32ZM6.89,17.71l15.94,13.9L13.35,40.5a1.95,1.95,0,0,0-.09,2.75,2,2,0,0,0,2.75.09l9.76-9.16L28,36.12a6.39,6.39,0,0,0,8,0l2.22-1.94L48,43.34a2,2,0,0,0,2.76-.08,1.95,1.95,0,0,0-.09-2.75l-9.48-8.89,15.94-13.9V47.37A1.66,1.66,0,0,1,55.45,49H8.55a1.66,1.66,0,0,1-1.66-1.66Z"/></svg>