<?xml version="1.0" encoding="utf-8"?>
<!-- Generator: Adobe Illustrator 21.0.2, SVG Export Plug-In . SVG Version: 6.00 Build 0)  -->
<svg version="1.1" id="Capa_1" xmlns="http://www.w3.org/2000/svg" xmlns:xlink="http://www.w3.org/1999/xlink" x="0px" y="0px"
	 viewBox="0 0 64 64" style="enable-background:new 0 0 64 64;" xml:space="preserve">
<style type="text/css">
	.st0{fill:#B2427C;}
</style>
<g>
	<path class="st0" d="M50.7,24.3H18.5v-8.6c0-7.5,6.1-13.5,13.5-13.5s13.5,6.1,13.5,13.5c0,0.5,0.4,1,1,1s1-0.4,1-1
		c0-8.5-6.9-15.5-15.5-15.5S16.5,7.2,16.5,15.7v8.6h-3.2c-2.3,0-4.1,1.8-4.1,4.1v31.3c0,2.3,1.8,4.1,4.1,4.1h37.4
		c2.3,0,4.1-1.8,4.1-4.1V28.4C54.8,26.2,53,24.3,50.7,24.3z M52.8,59.7c0,1.2-0.9,2.1-2.1,2.1H13.3c-1.2,0-2.1-0.9-2.1-2.1V28.4
		c0-1.2,0.9-2.1,2.1-2.1h37.4c1.2,0,2.1,0.9,2.1,2.1V59.7z"/>
	<path class="st0" d="M32,33.9c-3.5,0-6.4,2.9-6.4,6.4c0,2.4,1.3,4.5,3.4,5.6v5.1c0,1.7,1.4,3,3,3c1.7,0,3.1-1.4,3.1-3V46
		c2.1-1.1,3.4-3.3,3.4-5.6C38.4,36.8,35.5,33.9,32,33.9z M33.7,44.4c-0.4,0.2-0.6,0.5-0.6,0.9v5.7c0,0.6-0.5,1.1-1.1,1.1
		c-0.6,0-1.1-0.5-1.1-1.1v-5.7c0-0.4-0.2-0.8-0.6-0.9c-1.7-0.7-2.7-2.3-2.7-4.1c0-2.4,2-4.4,4.4-4.4c2.4,0,4.4,2,4.4,4.4
		C36.4,42.2,35.4,43.8,33.7,44.4z"/>
</g>
</svg>
