<?xml version="1.0" encoding="utf-8"?>
<!-- Generator: Adobe Illustrator 21.0.2, SVG Export Plug-In . SVG Version: 6.00 Build 0)  -->
<svg version="1.1" id="Capa_1" xmlns="http://www.w3.org/2000/svg" xmlns:xlink="http://www.w3.org/1999/xlink" x="0px" y="0px"
	 viewBox="0 0 64 64" style="enable-background:new 0 0 64 64;" xml:space="preserve">
<style type="text/css">
	.st0{fill:#B2427C;}
</style>
<g>
	<g>
		<g>
			<path class="st0" d="M62,29.1c-3.5-4.5-8-8.2-13-10.7c-5.2-2.6-10.7-3.9-16.5-4c-0.2,0-0.8,0-1,0c-5.8,0.1-11.3,1.4-16.5,4
				c-5,2.5-9.6,6.2-13,10.7c-1.3,1.7-1.3,4.1,0,5.8c3.5,4.5,8,8.2,13,10.7c5.2,2.6,10.7,3.9,16.5,4c0.2,0,0.8,0,1,0
				c5.8-0.1,11.3-1.4,16.5-4c5-2.5,9.6-6.2,13-10.7C63.3,33.2,63.3,30.8,62,29.1z M16.2,43.3C11.5,41,7.2,37.5,4,33.4
				c-0.6-0.8-0.6-1.9,0-2.7c3.2-4.2,7.5-7.6,12.2-10c1.3-0.7,2.7-1.2,4.1-1.7c-3.6,3.2-5.8,7.9-5.8,13.1c0,5.2,2.3,9.9,5.8,13.1
				C18.9,44.6,17.5,44,16.2,43.3z M32,47.1c-8.3,0-15.1-6.8-15.1-15.1S23.7,16.9,32,16.9S47.1,23.7,47.1,32S40.3,47.1,32,47.1z
				 M60,33.4c-3.2,4.2-7.5,7.6-12.2,10c-1.3,0.7-2.7,1.2-4.1,1.7c3.6-3.2,5.8-7.9,5.8-13.1c0-5.2-2.3-9.9-5.8-13.1
				c1.4,0.5,2.8,1.1,4.1,1.7c4.7,2.4,8.9,5.8,12.2,10C60.6,31.4,60.6,32.6,60,33.4z"/>
		</g>
	</g>
	<g>
		<g>
			<path class="st0" d="M32,25.6c-3.6,0-6.4,2.9-6.4,6.4s2.9,6.4,6.4,6.4s6.4-2.9,6.4-6.4C38.4,28.4,35.6,25.6,32,25.6z M32,35.9
				c-2.2,0-3.9-1.8-3.9-3.9c0-2.2,1.8-3.9,3.9-3.9c2.2,0,3.9,1.8,3.9,3.9C35.9,34.2,34.2,35.9,32,35.9z"/>
		</g>
	</g>
</g>
</svg>
