<?xml version="1.0" encoding="utf-8"?>
<!-- Generator: Adobe Illustrator 21.0.2, SVG Export Plug-In . SVG Version: 6.00 Build 0)  -->
<svg version="1.1" id="Capa_1" xmlns="http://www.w3.org/2000/svg" xmlns:xlink="http://www.w3.org/1999/xlink" x="0px" y="0px"
	 viewBox="0 0 64 64" style="enable-background:new 0 0 64 64;" xml:space="preserve">
<style type="text/css">
	.st0{fill:#B2427C;}
</style>
<path class="st0" d="M32,0.6C14.6,0.6,0.6,14.6,0.6,32S14.6,63.4,32,63.4S63.4,49.4,63.4,32S49.4,0.6,32,0.6z M47.2,22.8L29.5,42.7
	C29.3,42.9,29,43,28.7,43c-0.2,0-0.5-0.1-0.7-0.2l-11-8.8c-0.5-0.4-0.6-1.1-0.2-1.6c0.4-0.5,1.1-0.6,1.6-0.2l10.2,8.2l17-19.1
	c0.4-0.5,1.1-0.5,1.6-0.1C47.6,21.6,47.6,22.3,47.2,22.8z"/>
</svg>
