<?xml version="1.0" encoding="utf-8"?>
<!-- Generator: Adobe Illustrator 21.0.2, SVG Export Plug-In . SVG Version: 6.00 Build 0)  -->
<svg version="1.1" id="Capa_1" xmlns="http://www.w3.org/2000/svg" xmlns:xlink="http://www.w3.org/1999/xlink" x="0px" y="0px"
	 viewBox="0 0 64 64" style="enable-background:new 0 0 64 64;" xml:space="preserve">
<style type="text/css">
	.st0{fill:#B2427C;}
</style>
<g>
	<path class="st0" d="M54.7,24.7C54.7,12,44.6,1.9,32,1.9S9.3,12,9.3,24.6c0,0,0,0,0,0.1c-5.1,0.3-9.1,4.5-9.1,9.6v1.1
		c0,5.3,4.3,9.7,9.7,9.7h0.5l4,6.4c2.8,4.5,7.7,7.2,13,7.2h0.8c0.5,1.9,2.3,3.4,4.4,3.4c2.5,0,4.5-2,4.5-4.5c0-2.5-2-4.5-4.5-4.5
		c-2.1,0-3.9,1.5-4.4,3.4h-0.8c-4.5,0-8.7-2.3-11.1-6.2L13,45.1h0.8c1.3,0,2.3-1,2.3-2.3V26.9c0-1.3-1-2.3-2.3-2.3h-2.3
		c0-11.3,9.2-20.5,20.5-20.5s20.5,9.2,20.5,20.5h-2.3c-1.3,0-2.3,1-2.3,2.3v15.9c0,1.3,1,2.3,2.3,2.3h4c5.3,0,9.7-4.3,9.7-9.7v-1.1
		C63.8,29.2,59.8,24.9,54.7,24.7z M32.6,55.3c1.3,0,2.3,1,2.3,2.3s-1,2.3-2.3,2.3s-2.3-1-2.3-2.3S31.3,55.3,32.6,55.3z M13.8,26.9
		v15.9h-4c-4.1,0-7.4-3.3-7.4-7.4v-1.1c0-4.1,3.3-7.4,7.4-7.4H13.8z M61.6,35.4c0,4.1-3.3,7.4-7.4,7.4h-4V26.9h4
		c4.1,0,7.4,3.3,7.4,7.4V35.4z"/>
	<path class="st0" d="M41.4,10.4c-0.1-0.1-0.3-0.2-0.5-0.3c-0.2-0.1-0.3-0.2-0.5-0.3C40,9.5,39.3,9.7,39,10.3
		c-0.3,0.6-0.2,1.2,0.4,1.5c0.1,0.1,0.3,0.2,0.5,0.3c0.2,0.1,0.3,0.2,0.5,0.3c0.2,0.1,0.4,0.2,0.6,0.2c0.4,0,0.7-0.2,1-0.6
		C42.2,11.5,42,10.8,41.4,10.4z"/>
	<path class="st0" d="M32,7.5c-4.8,0-9.4,2.1-12.5,5.7c-0.4,0.5-0.3,1.2,0.1,1.6c0.2,0.2,0.5,0.3,0.7,0.3c0.3,0,0.6-0.1,0.9-0.4
		c2.7-3.1,6.7-4.9,10.8-4.9c1,0,2,0.1,3.1,0.3c0.6,0.1,1.2-0.3,1.4-0.9c0.2-0.6-0.3-1.2-0.9-1.4C34.4,7.7,33.2,7.5,32,7.5z"/>
</g>
</svg>
