<?xml version="1.0" encoding="utf-8"?>
<!-- Generator: Adobe Illustrator 21.0.2, SVG Export Plug-In . SVG Version: 6.00 Build 0)  -->
<svg version="1.1" id="Capa_1" xmlns="http://www.w3.org/2000/svg" xmlns:xlink="http://www.w3.org/1999/xlink" x="0px" y="0px"
	 viewBox="0 0 64 64" style="enable-background:new 0 0 64 64;" xml:space="preserve">
<style type="text/css">
	.st0{fill:#B2427C;}
</style>
<g>
	<path class="st0" d="M32,54.5c0.6,0,1-0.5,1-1V18.9c0-0.6-0.5-1-1-1s-1,0.5-1,1v34.6C31,54.1,31.4,54.5,32,54.5z"/>
	<path class="st0" d="M21.5,54.5c0.6,0,1-0.5,1-1V18.9c0-0.6-0.5-1-1-1c-0.6,0-1,0.5-1,1v34.6C20.5,54.1,20.9,54.5,21.5,54.5z"/>
	<path class="st0" d="M42.5,54.5c0.6,0,1-0.5,1-1V18.9c0-0.6-0.5-1-1-1c-0.6,0-1,0.5-1,1v34.6C41.4,54.1,41.9,54.5,42.5,54.5z"/>
	<path class="st0" d="M56.1,7.4H41.4c-0.1-1.3-0.5-3.5-1.9-4.9c-0.9-0.9-2-1.4-3.3-1.4H25.7c-1.3,0-2.4,0.5-3.3,1.4
		c-1.4,1.4-1.8,3.6-1.9,4.9H7.9c-0.6,0-1,0.5-1,1c0,0.6,0.5,1,1,1H10l2,48.2c0,1.8,1.2,5.2,5.1,5.2h29.6c4,0,5.1-3.4,5.1-5.2l2-48.3
		h2.1c0.6,0,1-0.5,1-1C57.2,7.8,56.7,7.4,56.1,7.4z M23.9,3.9c0.5-0.5,1.1-0.7,1.8-0.7h10.5c0.7,0,1.3,0.2,1.8,0.7
		c0.8,0.9,1.2,2.4,1.3,3.5H22.6C22.7,6.3,23.1,4.8,23.9,3.9z M49.9,57.7c0,0.3-0.2,3.2-3,3.2H17.2c-2.9,0-3-2.8-3-3.2l-2-48.2h39.7
		L49.9,57.7z"/>
</g>
</svg>
