<?xml version="1.0" encoding="utf-8"?>
<!-- Generator: Adobe Illustrator 21.0.2, SVG Export Plug-In . SVG Version: 6.00 Build 0)  -->
<svg version="1.1" id="Capa_1" xmlns="http://www.w3.org/2000/svg" xmlns:xlink="http://www.w3.org/1999/xlink" x="0px" y="0px"
	 viewBox="0 0 64 64" style="enable-background:new 0 0 64 64;" xml:space="preserve">
<style type="text/css">
	.st0{fill:#B2427C;}
</style>
<path class="st0" d="M42.2,1.7C38.5,1.7,35,2.7,32,4.3c-3-1.6-6.5-2.6-10.2-2.6C9.9,1.7,0.3,11.4,0.3,23.2c0,7.7,4.1,14.5,10.2,18.3
	C10.9,53,20.4,62.3,32,62.3S53.1,53,53.5,41.5c6.1-3.8,10.2-10.6,10.2-18.3C63.7,11.4,54.1,1.7,42.2,1.7z M32,7
	c4.8,3,8.2,8.2,8.9,14.2c-2.7-1.2-5.7-1.9-8.9-1.9c-3.2,0-6.2,0.7-8.9,1.9C23.8,15.2,27.2,10,32,7z M41,23.8
	c-0.2,6.6-3.7,12.4-9,15.7c-5.2-3.3-8.8-9.1-9-15.7c2.7-1.4,5.7-2.2,9-2.2C35.2,21.6,38.3,22.4,41,23.8z M2.6,23.2
	c0-10.6,8.6-19.2,19.2-19.2c2.8,0,5.5,0.6,7.9,1.7c-5.2,3.8-8.7,9.8-9,16.7c-5.6,3.5-9.5,9.4-10.1,16.3C5.8,35.3,2.6,29.6,2.6,23.2z
	 M20.8,25.2c0.6,6.4,4,12,8.9,15.5c-2.4,1.1-5.1,1.7-7.9,1.7c-3.2,0-6.3-0.8-9-2.2C13,34,16.1,28.6,20.8,25.2z M32,59.9
	c-9.9,0-18-7.5-19.1-17.1c2.7,1.2,5.7,1.9,8.9,1.9c3.7,0,7.2-0.9,10.2-2.6c3,1.6,6.5,2.6,10.2,2.6c3.2,0,6.2-0.7,8.9-1.9
	C50,52.4,41.9,59.9,32,59.9z M42.2,42.4c-2.8,0-5.5-0.6-7.9-1.7c4.9-3.5,8.3-9.1,8.9-15.5c4.7,3.4,7.8,8.8,7.9,15
	C48.5,41.6,45.4,42.4,42.2,42.4z M53.4,38.8c-0.6-6.9-4.5-12.9-10.1-16.3c-0.2-6.9-3.7-12.9-9-16.7c2.4-1.1,5.1-1.7,7.9-1.7
	c10.6,0,19.2,8.6,19.2,19.2C61.4,29.6,58.2,35.3,53.4,38.8z"/>
</svg>
