<svg xmlns="http://www.w3.org/2000/svg" viewBox="0 0 46.3 33.4"><defs><style>.cls-1{fill:#fff;}</style></defs><title>mail b</title><g id="Capa_2" data-name="Capa 2"><g id="Capa_2-2" data-name="Capa 2"><path class="cls-1" d="M41.87,0H4.43A4.44,4.44,0,0,0,0,4.43V29A4.44,4.44,0,0,0,4.43,33.4H41.87A4.44,4.44,0,0,0,46.3,29V4.43A4.44,4.44,0,0,0,41.87,0ZM24.3,17.65a1.88,1.88,0,0,1-2.3,0L5.33,3.11H41ZM3.11,5.29l12.72,11.1-7.57,7.1a1.55,1.55,0,0,0-.07,2.2,1.6,1.6,0,0,0,2.2.07l7.8-7.31L20,20a5.1,5.1,0,0,0,6.38,0l1.77-1.55,7.79,7.31a1.59,1.59,0,0,0,2.2-.07,1.55,1.55,0,0,0-.07-2.2l-7.57-7.1L43.19,5.3V29a1.33,1.33,0,0,1-1.32,1.33H4.43A1.33,1.33,0,0,1,3.11,29Z"/></g></g></svg>